<?xml version="1.0" standalone="no"?>
<!DOCTYPE svg PUBLIC "-//W3C//DTD SVG 20010904//EN"
 "http://www.w3.org/TR/2001/REC-SVG-20010904/DTD/svg10.dtd">
<svg version="1.0" xmlns="http://www.w3.org/2000/svg"
 width="746.000000pt" height="746.000000pt" viewBox="0 0 746.000000 746.000000"
 preserveAspectRatio="xMidYMid meet">

<g transform="translate(0.000000,746.000000) scale(0.100000,-0.100000)"
fill="#000000" stroke="none">
<path d="M3455 6743 c-338 -42 -599 -120 -881 -264 -338 -173 -686 -467 -897
-757 -431 -595 -574 -1389 -383 -2132 103 -405 280 -739 560 -1058 161 -183
359 -348 578 -483 51 -31 94 -62 96 -69 3 -8 -126 -11 -534 -9 -483 2 -546 0
-604 -16 -235 -62 -380 -244 -380 -474 0 -92 17 -159 61 -241 85 -160 235
-263 421 -289 41 -6 286 -13 544 -16 258 -3 577 -7 709 -10 343 -8 2637 -7
2965 1 309 8 364 17 472 77 178 100 272 258 272 457 0 249 -153 438 -401 496
-58 13 -137 15 -523 14 -250 -2 -513 -2 -585 -1 -155 2 -157 -4 49 116 192
111 362 242 524 403 353 354 571 745 677 1216 139 622 2 1316 -374 1896 -251
388 -648 730 -1072 925 -234 108 -519 185 -791 215 -90 9 -434 12 -503 3z
m249 -167 c52 -22 62 -101 15 -126 -10 -6 -19 -21 -19 -34 0 -18 9 -27 38 -39
76 -30 129 -94 147 -174 5 -27 11 -33 32 -33 14 0 39 12 56 26 36 30 70 26
105 -12 28 -31 28 -73 1 -108 -28 -35 -69 -34 -111 3 -50 43 -76 34 -113 -43
-28 -56 -35 -63 -97 -94 l-68 -34 6 -71 c4 -40 7 -73 8 -73 0 -1 305 -3 676
-5 l675 -4 -4 92 c-3 91 -3 93 27 122 38 39 75 48 126 30 57 -20 76 -60 76
-165 0 -65 3 -83 16 -88 9 -3 69 -6 134 -6 l118 0 4 -82 c2 -46 2 -85 1 -87
-2 -3 -277 -3 -611 0 -891 6 -2400 3 -2761 -5 l-314 -7 7 87 c3 48 8 89 9 91
2 1 59 5 127 8 69 4 127 9 130 11 3 3 7 42 9 86 l3 80 29 -4 c27 -4 28 -3 35
49 6 51 8 54 33 51 23 -3 26 -8 29 -50 3 -46 4 -47 40 -50 41 -3 38 5 41 -110
l1 -58 89 0 c53 0 93 4 96 11 8 12 13 253 7 322 -4 42 -7 47 -28 47 -20 0 -24
5 -24 28 0 26 13 37 138 115 76 48 144 87 150 87 13 0 42 -21 181 -128 64 -50
81 -69 79 -85 -2 -18 -9 -22 -37 -19 l-33 2 5 -162 c4 -90 6 -173 7 -185 l0
-23 315 0 315 0 0 79 0 78 -47 20 c-71 29 -109 66 -128 123 -21 65 -52 76 -95
35 -27 -26 -31 -27 -60 -15 -85 35 -67 160 23 160 19 0 38 -10 57 -31 33 -37
56 -34 65 8 17 77 66 133 141 164 61 24 68 43 29 79 -39 37 -31 89 20 118 26
15 39 15 79 -2z m930 -200 c5 -34 12 -45 29 -50 47 -12 65 -6 87 29 12 19 24
35 28 35 12 0 72 -64 72 -76 0 -7 -12 -22 -26 -33 l-26 -21 18 -50 c12 -35 22
-49 32 -45 46 18 59 16 66 -7 3 -13 6 -35 6 -50 0 -27 -14 -34 -57 -29 -15 2
-53 -52 -53 -74 0 -10 10 -34 22 -53 l22 -35 -34 -29 c-19 -15 -39 -28 -45
-28 -5 1 -19 15 -31 33 -11 18 -27 30 -35 28 -8 -2 -29 -6 -46 -9 -28 -4 -33
-9 -39 -41 -9 -57 -9 -57 -54 -53 l-43 4 6 48 c5 44 3 50 -29 81 l-35 34 -39
-23 -39 -22 -25 42 c-27 46 -24 58 24 83 21 11 26 21 28 59 1 44 0 47 -35 64
-20 9 -38 22 -40 27 -1 6 12 27 30 48 l32 39 27 -21 c35 -28 49 -26 83 9 27
28 28 32 17 67 -15 48 -2 63 53 63 l43 0 6 -44z m-2304 -956 l0 -40 -135 0
-135 0 0 33 c0 19 3 37 7 40 3 4 64 7 135 7 l128 0 0 -40z m2100 -89 l0 -69
-135 -1 -135 -1 0 63 c0 35 3 67 7 70 3 4 64 7 135 7 l128 0 0 -69z m308 62
l82 -5 0 -64 0 -64 -120 -1 c-66 -1 -126 -2 -132 -3 -9 -1 -14 20 -16 66 -3
66 -3 67 25 71 43 6 71 6 161 0z m-773 -72 l0 -64 -207 -3 -208 -3 0 70 0 69
208 -2 207 -3 0 -64z m-1635 -173 c0 -90 3 -245 7 -345 l6 -182 -132 -3 c-72
-2 -136 -1 -141 0 -11 4 -14 674 -3 685 3 4 64 7 135 7 l128 0 0 -162z m770
56 l0 -64 -83 0 c-46 0 -159 -3 -251 -7 l-166 -6 2 -326 3 -326 40 3 c22 2 42
6 44 8 2 2 3 132 2 289 l-2 285 333 -2 333 -3 3 -282 2 -283 23 -5 c12 -3 54
-5 92 -3 l70 3 5 350 5 350 201 3 202 2 4 -22 c2 -13 5 -165 6 -338 2 -173 6
-323 8 -333 5 -16 16 -17 97 -15 l92 3 3 38 3 37 115 2 c63 1 122 2 132 2 13
1 18 -9 22 -39 l5 -40 53 -3 c51 -3 52 -3 52 25 0 51 6 53 146 50 l129 -2 5
-40 c5 -40 5 -40 45 -37 22 2 43 7 47 11 4 3 9 101 10 216 l3 210 168 3 c129
2 168 0 172 -10 2 -7 6 -105 9 -218 3 -113 6 -206 6 -207 0 -2 103 -3 229 -3
l229 0 7 -86 c4 -47 4 -89 -1 -94 -5 -5 -922 -10 -2037 -12 l-2028 -3 3 90 3
90 182 3 182 2 3 38 3 37 133 3 132 3 0 -36 0 -35 55 0 55 0 2 393 3 392 290
5 c160 3 307 3 328 1 l37 -3 0 -64z m1334 -58 c3 -28 6 -155 6 -282 l0 -231
-127 -6 c-71 -2 -131 -2 -134 2 -8 7 -23 546 -16 558 3 4 64 8 135 9 l130 1 6
-51z m388 -186 c1 -126 2 -254 3 -282 l0 -53 -134 0 -135 0 -2 274 c-2 151 -1
278 2 283 3 4 63 8 135 8 l129 0 2 -230z m430 145 c27 -6 28 -9 28 -63 l0 -57
-173 0 -172 0 -3 57 -3 57 68 3 c181 8 228 8 255 3z m216 -1004 l292 -1 0 -90
0 -90 -105 0 -105 0 0 -464 0 -465 -102 -125 c-57 -69 -106 -125 -111 -125 -4
-1 -5 265 -2 589 l5 590 -1118 0 c-614 0 -1332 -3 -1596 -7 l-478 -6 6 -526
c3 -289 9 -565 12 -612 l6 -87 147 -6 c192 -7 1098 -13 1105 -6 3 3 6 196 7
428 l2 422 146 0 c158 0 203 -12 250 -61 53 -57 54 -67 52 -442 -2 -366 -4
-391 -49 -440 -45 -50 -71 -54 -357 -62 -148 -4 -272 -9 -274 -10 -1 -2 15
-37 37 -77 l39 -73 463 -3 463 -2 -6 610 c-7 660 -7 662 45 692 16 9 65 13
158 13 l135 0 3 48 3 47 40 0 39 0 0 -51 0 -50 43 3 c42 3 42 3 47 48 5 45 5
45 48 48 l42 3 0 -50 0 -51 151 0 151 0 29 -29 29 -29 1 -419 c1 -230 3 -455
5 -500 l4 -81 -35 -31 c-102 -89 -332 -228 -505 -303 -236 -104 -149 -95 -950
-103 l-705 -7 -141 59 c-138 58 -286 136 -342 180 l-27 21 23 46 c12 26 22 51
22 57 0 7 -34 10 -99 8 l-98 -4 -60 53 c-88 76 -293 291 -303 318 -5 12 -10
243 -11 513 -1 269 -5 494 -8 499 -3 5 -55 9 -115 8 l-109 -1 0 63 c1 34 2 75
2 92 l1 30 1188 2 c1078 3 1749 2 2570 -1z m-2537 -332 c21 -7 53 -24 70 -39
31 -25 32 -28 17 -48 l-15 -22 -18 20 c-26 29 -116 53 -165 45 -22 -4 -50 -15
-64 -26 -27 -21 -44 -23 -65 -10 -22 14 2 39 64 67 55 26 116 30 176 13z m-3
-119 c17 -11 32 -24 32 -30 0 -18 -30 -23 -55 -10 -22 12 -65 10 -113 -5 -21
-7 -23 -5 -20 16 6 48 97 65 156 29z m375 -130 l47 0 0 -390 0 -390 -505 0
-505 0 0 378 c1 207 4 383 8 389 9 14 204 19 632 16 151 -1 296 -3 323 -3z
m-1660 -1826 l37 -7 -2 -251 -3 -251 -51 -3 -51 -3 -7 251 c-4 138 -4 255 -1
260 7 12 25 12 78 4z m550 -9 c53 -22 105 -71 135 -129 22 -42 27 -64 26 -126
0 -90 -22 -140 -86 -194 -61 -53 -135 -73 -213 -57 -145 30 -224 123 -224 266
-1 149 107 255 260 255 37 0 83 -7 102 -15z m1820 5 l107 0 0 -54 0 -54 -132
-1 c-72 -1 -135 -4 -140 -7 -4 -3 -8 -27 -8 -54 l0 -49 118 2 117 2 3 -52 3
-53 -68 -1 c-37 -1 -90 -1 -117 1 -53 2 -66 -7 -66 -52 0 -50 15 -55 164 -51
l136 4 0 -61 0 -60 -202 2 -203 3 -1 196 c-1 108 1 228 4 267 l5 71 66 4 c36
2 75 2 86 0 11 -1 68 -3 128 -3z m645 -37 c80 -54 117 -127 117 -234 0 -68 -3
-81 -31 -126 l-32 -51 39 -38 39 -38 -37 -38 c-20 -21 -41 -38 -46 -38 -5 0
-27 20 -49 45 -35 39 -42 43 -64 35 -37 -14 -113 -12 -170 5 -61 18 -116 62
-151 122 -36 62 -39 176 -5 240 62 118 142 166 265 158 58 -3 76 -9 125 -42z
m1228 -10 c1 -43 -2 -53 -15 -53 -9 0 -68 -1 -131 -3 l-115 -2 -3 -47 -3 -48
43 -1 c24 -1 64 -1 90 1 69 3 85 -5 91 -46 10 -62 6 -64 -108 -64 -116 0 -128
-6 -118 -63 l6 -36 131 -3 131 -3 0 -55 0 -55 -193 -3 -194 -2 7 262 c3 144 8
265 11 269 2 4 86 6 186 5 l182 -1 2 -52z m-2908 -10 l-3 -58 -85 -5 -85 -5
-1 -100 c-1 -55 -2 -146 -3 -202 l-1 -103 -55 0 -55 0 -2 208 -3 207 -82 3
-83 3 0 48 c0 26 3 51 7 54 3 4 107 7 230 7 l224 0 -3 -57z m243 35 c3 -44 7
-123 8 -160 l1 -38 115 0 114 0 3 108 3 107 53 3 52 3 1 -158 c0 -87 1 -204 3
-261 1 -56 -1 -107 -5 -113 -3 -6 -28 -9 -55 -7 l-49 3 -2 75 c0 41 -1 88 -2
103 l-1 28 -112 -3 -113 -3 -3 -97 -3 -96 -47 -4 c-26 -3 -53 -3 -59 0 -10 3
-13 57 -13 222 0 119 3 238 6 264 l7 46 48 0 c44 0 49 -2 50 -22z m1798 -138
c1 -173 8 -205 56 -236 50 -33 128 -13 157 38 8 15 14 84 18 188 l5 165 53 3
54 3 -4 -183 c-4 -195 -13 -234 -61 -286 -75 -81 -225 -84 -316 -6 -68 58 -76
99 -72 367 l1 107 54 0 54 0 1 -160z"/>
<path d="M3619 6321 c-69 -22 -129 -97 -129 -161 0 -65 53 -136 119 -162 90
-34 211 57 211 158 0 106 -108 194 -201 165z"/>
<path d="M2713 6205 c-84 -36 -83 -185 1 -220 95 -40 179 16 178 116 -1 49
-16 75 -55 99 -37 23 -79 25 -124 5z m101 -77 c21 -29 20 -40 -4 -66 -26 -27
-66 -29 -80 -3 -14 27 -13 78 3 84 30 13 67 6 81 -15z"/>
<path d="M5126 5918 c-21 -30 -20 -50 5 -82 36 -46 89 -24 89 38 0 59 -63 89
-94 44z"/>
<path d="M2207 5874 c-4 -4 -7 -31 -7 -60 0 -59 11 -68 67 -58 l34 6 -3 57 -3
56 -40 3 c-23 2 -44 0 -48 -4z"/>
<path d="M4555 6196 c-45 -45 -45 -102 -1 -153 20 -23 32 -28 70 -28 61 0 96
34 103 98 5 41 2 49 -25 77 -40 40 -110 43 -147 6z"/>
<path d="M2814 4925 c-7 -18 0 -112 9 -122 9 -9 411 -3 420 6 4 4 7 35 5 67
l-3 59 -213 3 c-185 2 -213 0 -218 -13z"/>
<path d="M4369 3298 c-2 -215 1 -453 7 -470 5 -17 24 -18 310 -18 l304 0 1
120 c0 66 1 136 1 155 0 19 -1 94 -1 165 l-1 130 -310 0 -310 0 -1 -82z m549
-199 l3 -206 -23 -7 c-13 -3 -119 -6 -235 -6 l-213 0 0 215 0 215 233 -2 232
-3 3 -206z"/>
<path d="M4538 3213 c-2 -10 -2 -26 0 -36 3 -16 17 -17 155 -15 l152 3 0 30 0
30 -151 3 c-138 2 -152 1 -156 -15z"/>
<path d="M3546 3314 c-9 -8 -16 -24 -16 -34 0 -22 25 -50 45 -50 20 0 45 28
45 50 0 22 -25 50 -45 50 -7 0 -21 -7 -29 -16z"/>
<path d="M3725 3306 c-33 -51 29 -91 70 -46 17 18 17 21 1 45 -21 32 -51 32
-71 1z"/>
<path d="M3616 2988 c-77 -58 -62 -169 30 -209 44 -20 44 -20 88 0 125 55 87
231 -49 231 -25 -1 -51 -9 -69 -22z m116 -55 c40 -36 9 -103 -47 -103 -37 0
-55 20 -55 61 0 51 63 77 102 42z"/>
<path d="M4643 2700 c-25 -10 -53 -58 -53 -90 0 -39 28 -78 65 -90 30 -10 40
-9 68 7 102 60 30 217 -80 173z"/>
<path d="M2805 2535 c-30 -30 -32 -64 -4 -99 42 -54 129 -19 129 51 0 22 -8
38 -26 52 -35 28 -69 26 -99 -4z"/>
<path d="M2429 3442 c-3 -28 4 -618 8 -622 2 -3 191 -6 419 -7 325 -2 414 0
415 10 1 6 1 149 0 317 l-2 305 -419 2 c-231 2 -420 0 -421 -5z m526 -126 c68
-52 93 -150 59 -231 -15 -37 -15 -38 15 -74 17 -20 43 -53 58 -74 l26 -38 -23
-24 -24 -25 -38 37 c-21 21 -50 54 -64 74 -25 37 -26 37 -59 23 -68 -28 -138
-10 -199 51 -86 86 -66 232 39 293 33 19 52 22 106 20 55 -3 73 -9 104 -32z"/>
<path d="M2762 3252 c-41 -39 -48 -80 -23 -136 46 -106 191 -96 221 15 10 35
8 47 -10 83 -23 49 -53 66 -114 66 -34 0 -51 -6 -74 -28z"/>
<path d="M2023 1574 c-100 -50 -96 -216 7 -269 63 -32 146 -8 188 55 19 28 23
45 20 86 -9 113 -116 177 -215 128z"/>
<path d="M4435 1561 c-46 -28 -66 -56 -72 -100 -13 -93 25 -159 102 -181 25
-7 48 -10 52 -6 6 6 -7 36 -29 69 -15 20 -3 32 41 44 20 5 31 -1 57 -30 17
-21 34 -37 36 -37 15 0 38 74 38 118 0 56 -28 100 -81 127 -39 21 -108 19
-144 -4z"/>
</g>
</svg>
