<?xml version="1.0" encoding="UTF-8"?>
<svg id="Calque_1" data-name="Calque 1" xmlns="http://www.w3.org/2000/svg" viewBox="0 0 230 218">
  <path d="M227.48,134.32l-57.62-102.93-30.01,16.8v-23.9h-33.33V2.8h-37.33v11.59h-29.33V2.8H2.52v149.45h137.33V54.21l55.06,98.35,32.58-18.24ZM168.32,36.83l4.2,7.5-25.6,14.33-4.2-7.5,25.6-14.33ZM173.5,46.08l26.78,47.84-5.25,18.6-22.79-40.71c2.36-1.87,3.09-5.23,1.57-7.95-1.69-3.01-5.5-4.09-8.51-2.4-3.01,1.69-4.09,5.5-2.4,8.51,1.52,2.72,4.76,3.85,7.6,2.81l9.23,16.48-18.6-5.25-13.22-23.61,25.6-14.33ZM204.94,130.22l-8.53-15.23,5.25-18.6,15.2,27.16-11.93,6.68ZM181.1,91.73l22.09,39.47-11.93,6.68-28.77-51.39,18.6,5.25ZM217.84,125.29l4.2,7.5-25.6,14.33-4.2-7.5,25.6-14.33ZM73.18,6.8h29.33v8.59h-29.33V6.8ZM55.52,50.82c2.98-.48,5.25-3.05,5.25-6.17,0-3.45-2.8-6.25-6.25-6.25s-6.25,2.8-6.25,6.25c0,3.11,2.28,5.69,5.25,6.17v33.64l-13.67,13.67V28.99h29.33v21.12l-13.67,13.39v-12.68ZM69.18,26.99h-29.33v-8.59h29.33v8.59ZM6.52,6.8h29.33v8.59H6.52V6.8ZM35.85,17.4v84.74l-13.67,13.67V39.23c2.98-.48,5.25-3.05,5.25-6.17,0-3.45-2.8-6.25-6.25-6.25s-6.25,2.8-6.25,6.25c0,3.11,2.28,5.69,5.25,6.17v31.52l-13.67-13.67V17.4h29.33ZM6.52,59.91l13.67,13.67v64.09H6.52V59.91ZM22.18,118.63l13.67-13.67v32.7h-13.67v-19.04ZM39.85,100.96l13.67-13.67v28.02c-2.98.48-5.25,3.05-5.25,6.17,0,3.45,2.8,6.25,6.25,6.25s6.25-2.8,6.25-6.25c0-3.11-2.28-5.69-5.25-6.17v-49.02l13.67-13.39v84.76h-29.33v-36.7ZM73.18,48.99l11.05-10.83c.76.54,1.65.92,2.62,1.07v36.49c-2.98.48-5.25,3.05-5.25,6.17,0,3.45,2.8,6.25,6.25,6.25,1.42,0,2.73-.48,3.78-1.28l10.88,10.88v39.93h-29.33V48.99ZM106.52,101.74l13.67,13.67v22.26h-13.67v-35.93ZM122.18,115.26l.34-.34-.34-.34v-29.11l.34.34,13.33-13.32v65.18h-13.67v-22.41ZM135.85,69.66l-13.67,13.67v-21.69c2.98-.48,5.25-3.05,5.25-6.17,0-3.45-2.8-6.25-6.25-6.25s-6.25,2.8-6.25,6.25c0,3.11,2.28,5.69,5.25,6.17v50.95l-13.67-13.67v-60.02h29.33v30.77ZM135.85,36.89h-29.33v-8.59h29.33v8.59ZM102.52,94.91l-9.5-9.5c.69-1,1.09-2.22,1.09-3.52,0-3.11-2.28-5.69-5.25-6.17v-36.49c2.98-.48,5.25-3.05,5.25-6.17,0-3.45-2.8-6.25-6.25-6.25s-6.25,2.8-6.25,6.25c0,1.38.45,2.65,1.21,3.69l-9.63,9.43v-28.79h29.33v77.51ZM6.52,148.26v-8.59h29.33v8.59H6.52ZM39.85,148.26v-8.59h29.33v8.59h-29.33ZM73.18,148.26v-8.59h29.33v8.59h-29.33ZM106.52,148.26v-8.59h29.33v8.59h-29.33Z"/>
  <g>
    <path d="M8.8,163.41c-3.47,0-6.29,2.82-6.29,6.29,0,2.77,1.8,5.12,4.29,5.96v26.67c0,1.1.9,2,2,2s2-.9,2-2v-26.67c2.49-.84,4.29-3.19,4.29-5.96,0-3.47-2.82-6.29-6.29-6.29Z"/>
    <path d="M196.39,180.57c-.55,0-1,.45-1,1v20.75h-15l-4.75-4.75v-16c0-.55-.45-1-1-1s-1,.45-1,1v16.42c0,.27.11.52.29.71l5.33,5.33c.19.19.44.29.71.29h16.42c.55,0,1-.45,1-1v-21.75c0-.55-.45-1-1-1Z"/>
    <path d="M227.15,186.19l-5.33-5.33c-.19-.19-.44-.29-.71-.29h-11.09c-.27,0-.52.11-.71.29l-5.33,5.33c-.19.19-.29.44-.29.71v11.09c0,.27.11.52.29.71l5.33,5.33c.19.19.44.29.71.29h11.09c.55,0,1-.45,1-1s-.45-1-1-1h-10.67l-4.75-4.75v-4.13h20.75c.55,0,1-.45,1-1v-5.54c0-.27-.11-.52-.29-.71ZM225.45,191.45h-19.75v-4.13l4.75-4.75h10.26l4.75,4.75v4.13Z"/>
    <path d="M131.65,180.86c-.19-.19-.44-.29-.71-.29h-11.09c-.27,0-.52.11-.71.29l-5.33,5.33c-.19.19-.29.44-.29.71v11.09c0,.27.11.52.29.71l5.33,5.33c.19.19.44.29.71.29h11.09c.55,0,1-.45,1-1s-.45-1-1-1h-10.67l-4.75-4.75v-4.13h20.75c.55,0,1-.45,1-1v-5.54c0-.27-.11-.52-.29-.71l-5.33-5.33ZM135.27,191.45h-19.75v-4.13l4.75-4.75h10.26l4.75,4.75v4.13Z"/>
    <path d="M40.49,168.28c-.38-.38-.88-.59-1.41-.59h-11.09c-.53,0-1.04.21-1.41.59l-5.33,5.33c-.38.38-.59.88-.59,1.41v21.96c0,.53.21,1.04.59,1.41l5.33,5.33c.38.38.88.59,1.41.59h11.09c.53,0,1.04-.21,1.41-.59l5.33-5.33c.38-.38.59-.88.59-1.41v-21.96c0-.53-.21-1.04-.59-1.41l-5.33-5.33ZM42.41,196.16l-4.16,4.16h-9.43l-4.16-4.16v-20.31l4.16-4.16h9.43l4.16,4.16v20.31Z"/>
    <path d="M166.33,180.57h-16.42c-.27,0-.52.11-.71.29l-5.33,5.33c-.19.19-.29.44-.29.71v11.09c0,.27.11.52.29.71l5.33,5.33c.19.19.44.29.71.29h15.42v9.88c0,.55.45,1,1,1s1-.45,1-1v-32.63c0-.55-.45-1-1-1ZM145.58,197.58v-10.26l4.75-4.75h15v19.75h-15l-4.75-4.75Z"/>
    <path d="M101.59,180.86c-.19-.19-.44-.29-.71-.29h-11.09c-.27,0-.52.11-.71.29l-3.62,3.62v-15.8c0-.55-.45-1-1-1s-1,.45-1,1v34.64c0,.55.45,1,1,1s1-.45,1-1v-16.01l4.75-4.75h10.26l4.75,4.75v16.01c0,.55.45,1,1,1s1-.45,1-1v-16.42c0-.27-.11-.52-.29-.71l-5.33-5.33Z"/>
    <path d="M74.47,167.7h-21.75c-1.1,0-2,.9-2,2s.9,2,2,2h8.88v30.63c0,1.1.9,2,2,2s2-.9,2-2v-30.63h8.88c1.1,0,2-.9,2-2s-.9-2-2-2Z"/>
  </g>
</svg>