<svg xmlns="http://www.w3.org/2000/svg" xmlns:xlink="http://www.w3.org/1999/xlink" width="500" zoomAndPan="magnify" viewBox="0 0 375 374.999991" height="500" preserveAspectRatio="xMidYMid meet" version="1.0"><defs><g/><clipPath id="14fdfd0cda"><path d="M 0.0078125 0 L 375 0 L 375 375 L 0.0078125 375 Z M 0.0078125 0 " clip-rule="nonzero"/></clipPath><clipPath id="1a9257a599"><path d="M 69.972656 11.378906 L 297.222656 11.378906 L 297.222656 231.875 L 69.972656 231.875 Z M 69.972656 11.378906 " clip-rule="nonzero"/></clipPath><clipPath id="1471e49234"><path d="M 92.4375 39.382812 L 124.980469 39.382812 L 124.980469 172.585938 L 92.4375 172.585938 Z M 92.4375 39.382812 " clip-rule="nonzero"/></clipPath><clipPath id="6fde194c40"><path d="M 264.3125 189.070312 L 274.84375 189.070312 L 274.84375 199.601562 L 264.3125 199.601562 Z M 264.3125 189.070312 " clip-rule="nonzero"/></clipPath><clipPath id="9edca6e866"><path d="M 269.578125 189.070312 C 266.667969 189.070312 264.3125 191.429688 264.3125 194.335938 C 264.3125 197.242188 266.667969 199.601562 269.578125 199.601562 C 272.484375 199.601562 274.84375 197.242188 274.84375 194.335938 C 274.84375 191.429688 272.484375 189.070312 269.578125 189.070312 Z M 269.578125 189.070312 " clip-rule="nonzero"/></clipPath><clipPath id="d44b73b033"><path d="M 265.503906 190.265625 L 273.648438 190.265625 L 273.648438 198.410156 L 265.503906 198.410156 Z M 265.503906 190.265625 " clip-rule="nonzero"/></clipPath><clipPath id="e7595442e4"><path d="M 269.578125 190.265625 C 267.328125 190.265625 265.503906 192.085938 265.503906 194.335938 C 265.503906 196.585938 267.328125 198.410156 269.578125 198.410156 C 271.824219 198.410156 273.648438 196.585938 273.648438 194.335938 C 273.648438 192.085938 271.824219 190.265625 269.578125 190.265625 Z M 269.578125 190.265625 " clip-rule="nonzero"/></clipPath><clipPath id="e772a93218"><path d="M 267.292969 192.054688 L 271.859375 192.054688 L 271.859375 196.621094 L 267.292969 196.621094 Z M 267.292969 192.054688 " clip-rule="nonzero"/></clipPath><clipPath id="d0eb48c886"><path d="M 269.578125 192.054688 C 268.316406 192.054688 267.292969 193.074219 267.292969 194.335938 C 267.292969 195.597656 268.316406 196.621094 269.578125 196.621094 C 270.839844 196.621094 271.859375 195.597656 271.859375 194.335938 C 271.859375 193.074219 270.839844 192.054688 269.578125 192.054688 Z M 269.578125 192.054688 " clip-rule="nonzero"/></clipPath><clipPath id="13afda7b84"><path d="M 244.320312 92.460938 L 254.851562 92.460938 L 254.851562 102.992188 L 244.320312 102.992188 Z M 244.320312 92.460938 " clip-rule="nonzero"/></clipPath><clipPath id="a0322bf9b6"><path d="M 249.585938 92.460938 C 246.675781 92.460938 244.320312 94.820312 244.320312 97.726562 C 244.320312 100.636719 246.675781 102.992188 249.585938 102.992188 C 252.492188 102.992188 254.851562 100.636719 254.851562 97.726562 C 254.851562 94.820312 252.492188 92.460938 249.585938 92.460938 Z M 249.585938 92.460938 " clip-rule="nonzero"/></clipPath><clipPath id="72f7d703ef"><path d="M 245.511719 93.65625 L 253.65625 93.65625 L 253.65625 101.800781 L 245.511719 101.800781 Z M 245.511719 93.65625 " clip-rule="nonzero"/></clipPath><clipPath id="583157751a"><path d="M 249.585938 93.65625 C 247.335938 93.65625 245.511719 95.476562 245.511719 97.726562 C 245.511719 99.976562 247.335938 101.800781 249.585938 101.800781 C 251.832031 101.800781 253.65625 99.976562 253.65625 97.726562 C 253.65625 95.476562 251.832031 93.65625 249.585938 93.65625 Z M 249.585938 93.65625 " clip-rule="nonzero"/></clipPath><clipPath id="672f270122"><path d="M 247.300781 95.445312 L 251.867188 95.445312 L 251.867188 100.011719 L 247.300781 100.011719 Z M 247.300781 95.445312 " clip-rule="nonzero"/></clipPath><clipPath id="37ef6e60c8"><path d="M 249.585938 95.445312 C 248.324219 95.445312 247.300781 96.464844 247.300781 97.726562 C 247.300781 98.988281 248.324219 100.011719 249.585938 100.011719 C 250.847656 100.011719 251.867188 98.988281 251.867188 97.726562 C 251.867188 96.464844 250.847656 95.445312 249.585938 95.445312 Z M 249.585938 95.445312 " clip-rule="nonzero"/></clipPath><clipPath id="7fd48357e0"><path d="M 197.402344 175.527344 L 207.933594 175.527344 L 207.933594 186.058594 L 197.402344 186.058594 Z M 197.402344 175.527344 " clip-rule="nonzero"/></clipPath><clipPath id="1f7be8b3fd"><path d="M 202.667969 175.527344 C 199.761719 175.527344 197.402344 177.882812 197.402344 180.792969 C 197.402344 183.699219 199.761719 186.058594 202.667969 186.058594 C 205.578125 186.058594 207.933594 183.699219 207.933594 180.792969 C 207.933594 177.882812 205.578125 175.527344 202.667969 175.527344 Z M 202.667969 175.527344 " clip-rule="nonzero"/></clipPath><clipPath id="aa9f2eaa02"><path d="M 198.597656 176.71875 L 206.742188 176.71875 L 206.742188 184.863281 L 198.597656 184.863281 Z M 198.597656 176.71875 " clip-rule="nonzero"/></clipPath><clipPath id="dbd2ea0c04"><path d="M 202.667969 176.71875 C 200.417969 176.71875 198.597656 178.542969 198.597656 180.792969 C 198.597656 183.042969 200.417969 184.863281 202.667969 184.863281 C 204.917969 184.863281 206.742188 183.042969 206.742188 180.792969 C 206.742188 178.542969 204.917969 176.71875 202.667969 176.71875 Z M 202.667969 176.71875 " clip-rule="nonzero"/></clipPath><clipPath id="b8e8c45510"><path d="M 200.386719 178.507812 L 204.953125 178.507812 L 204.953125 183.074219 L 200.386719 183.074219 Z M 200.386719 178.507812 " clip-rule="nonzero"/></clipPath><clipPath id="a03269e0bf"><path d="M 202.667969 178.507812 C 201.40625 178.507812 200.386719 179.53125 200.386719 180.792969 C 200.386719 182.054688 201.40625 183.074219 202.667969 183.074219 C 203.929688 183.074219 204.953125 182.054688 204.953125 180.792969 C 204.953125 179.53125 203.929688 178.507812 202.667969 178.507812 Z M 202.667969 178.507812 " clip-rule="nonzero"/></clipPath><clipPath id="02697df8dd"><path d="M 142.394531 64.410156 L 152.925781 64.410156 L 152.925781 74.941406 L 142.394531 74.941406 Z M 142.394531 64.410156 " clip-rule="nonzero"/></clipPath><clipPath id="6a094ea24a"><path d="M 147.660156 64.410156 C 144.753906 64.410156 142.394531 66.769531 142.394531 69.675781 C 142.394531 72.582031 144.753906 74.941406 147.660156 74.941406 C 150.566406 74.941406 152.925781 72.582031 152.925781 69.675781 C 152.925781 66.769531 150.566406 64.410156 147.660156 64.410156 Z M 147.660156 64.410156 " clip-rule="nonzero"/></clipPath><clipPath id="3359e5b502"><path d="M 143.585938 65.605469 L 151.730469 65.605469 L 151.730469 73.75 L 143.585938 73.75 Z M 143.585938 65.605469 " clip-rule="nonzero"/></clipPath><clipPath id="a23f7bee51"><path d="M 147.660156 65.605469 C 145.410156 65.605469 143.585938 67.425781 143.585938 69.675781 C 143.585938 71.925781 145.410156 73.75 147.660156 73.75 C 149.910156 73.75 151.730469 71.925781 151.730469 69.675781 C 151.730469 67.425781 149.910156 65.605469 147.660156 65.605469 Z M 147.660156 65.605469 " clip-rule="nonzero"/></clipPath><clipPath id="eb636d34d5"><path d="M 145.375 67.394531 L 149.945312 67.394531 L 149.945312 71.960938 L 145.375 71.960938 Z M 145.375 67.394531 " clip-rule="nonzero"/></clipPath><clipPath id="343ce9e630"><path d="M 147.660156 67.394531 C 146.398438 67.394531 145.375 68.414062 145.375 69.675781 C 145.375 70.9375 146.398438 71.960938 147.660156 71.960938 C 148.921875 71.960938 149.945312 70.9375 149.945312 69.675781 C 149.945312 68.414062 148.921875 67.394531 147.660156 67.394531 Z M 147.660156 67.394531 " clip-rule="nonzero"/></clipPath><clipPath id="b1a232bd47"><path d="M 146.804688 191.3125 L 157.332031 191.3125 L 157.332031 201.84375 L 146.804688 201.84375 Z M 146.804688 191.3125 " clip-rule="nonzero"/></clipPath><clipPath id="d062ad55db"><path d="M 152.066406 191.3125 C 149.160156 191.3125 146.804688 193.671875 146.804688 196.578125 C 146.804688 199.484375 149.160156 201.84375 152.066406 201.84375 C 154.976562 201.84375 157.332031 199.484375 157.332031 196.578125 C 157.332031 193.671875 154.976562 191.3125 152.066406 191.3125 Z M 152.066406 191.3125 " clip-rule="nonzero"/></clipPath><clipPath id="457328f2de"><path d="M 147.996094 192.503906 L 156.140625 192.503906 L 156.140625 200.648438 L 147.996094 200.648438 Z M 147.996094 192.503906 " clip-rule="nonzero"/></clipPath><clipPath id="964fb186ad"><path d="M 152.066406 192.503906 C 149.820312 192.503906 147.996094 194.328125 147.996094 196.578125 C 147.996094 198.828125 149.820312 200.648438 152.066406 200.648438 C 154.316406 200.648438 156.140625 198.828125 156.140625 196.578125 C 156.140625 194.328125 154.316406 192.503906 152.066406 192.503906 Z M 152.066406 192.503906 " clip-rule="nonzero"/></clipPath><clipPath id="209d29aae1"><path d="M 149.785156 194.292969 L 154.351562 194.292969 L 154.351562 198.863281 L 149.785156 198.863281 Z M 149.785156 194.292969 " clip-rule="nonzero"/></clipPath><clipPath id="0f99a50194"><path d="M 152.066406 194.292969 C 150.808594 194.292969 149.785156 195.316406 149.785156 196.578125 C 149.785156 197.839844 150.808594 198.863281 152.066406 198.863281 C 153.328125 198.863281 154.351562 197.839844 154.351562 196.578125 C 154.351562 195.316406 153.328125 194.292969 152.066406 194.292969 Z M 152.066406 194.292969 " clip-rule="nonzero"/></clipPath><clipPath id="48543f20c1"><path d="M 134.171875 127.808594 L 144.992188 127.808594 L 144.992188 138.625 L 134.171875 138.625 Z M 134.171875 127.808594 " clip-rule="nonzero"/></clipPath><clipPath id="b5eac5f6fa"><path d="M 139.582031 127.808594 C 136.59375 127.808594 134.171875 130.230469 134.171875 133.21875 C 134.171875 136.203125 136.59375 138.625 139.582031 138.625 C 142.570312 138.625 144.992188 136.203125 144.992188 133.21875 C 144.992188 130.230469 142.570312 127.808594 139.582031 127.808594 Z M 139.582031 127.808594 " clip-rule="nonzero"/></clipPath><clipPath id="b90b39733e"><path d="M 135.398438 129.03125 L 143.765625 129.03125 L 143.765625 137.402344 L 135.398438 137.402344 Z M 135.398438 129.03125 " clip-rule="nonzero"/></clipPath><clipPath id="1a82a2f816"><path d="M 139.582031 129.03125 C 137.269531 129.03125 135.398438 130.90625 135.398438 133.21875 C 135.398438 135.527344 137.269531 137.402344 139.582031 137.402344 C 141.890625 137.402344 143.765625 135.527344 143.765625 133.21875 C 143.765625 130.90625 141.890625 129.03125 139.582031 129.03125 Z M 139.582031 129.03125 " clip-rule="nonzero"/></clipPath><clipPath id="f2dc1a3f63"><path d="M 137.234375 130.871094 L 141.925781 130.871094 L 141.925781 135.5625 L 137.234375 135.5625 Z M 137.234375 130.871094 " clip-rule="nonzero"/></clipPath><clipPath id="31c79baaf1"><path d="M 139.582031 130.871094 C 138.285156 130.871094 137.234375 131.921875 137.234375 133.21875 C 137.234375 134.511719 138.285156 135.5625 139.582031 135.5625 C 140.875 135.5625 141.925781 134.511719 141.925781 133.21875 C 141.925781 131.921875 140.875 130.871094 139.582031 130.871094 Z M 139.582031 130.871094 " clip-rule="nonzero"/></clipPath><clipPath id="a3f0bb38f3"><path d="M 103.445312 159.773438 L 113.976562 159.773438 L 113.976562 170.304688 L 103.445312 170.304688 Z M 103.445312 159.773438 " clip-rule="nonzero"/></clipPath><clipPath id="315bdc1ba8"><path d="M 108.710938 159.773438 C 105.800781 159.773438 103.445312 162.132812 103.445312 165.039062 C 103.445312 167.945312 105.800781 170.304688 108.710938 170.304688 C 111.617188 170.304688 113.976562 167.945312 113.976562 165.039062 C 113.976562 162.132812 111.617188 159.773438 108.710938 159.773438 Z M 108.710938 159.773438 " clip-rule="nonzero"/></clipPath><clipPath id="2affd4e895"><path d="M 104.636719 160.96875 L 112.78125 160.96875 L 112.78125 169.113281 L 104.636719 169.113281 Z M 104.636719 160.96875 " clip-rule="nonzero"/></clipPath><clipPath id="b72b2d541d"><path d="M 108.710938 160.96875 C 106.460938 160.96875 104.636719 162.789062 104.636719 165.039062 C 104.636719 167.289062 106.460938 169.113281 108.710938 169.113281 C 110.960938 169.113281 112.78125 167.289062 112.78125 165.039062 C 112.78125 162.789062 110.960938 160.96875 108.710938 160.96875 Z M 108.710938 160.96875 " clip-rule="nonzero"/></clipPath><clipPath id="15d3986bd1"><path d="M 106.425781 162.753906 L 110.992188 162.753906 L 110.992188 167.324219 L 106.425781 167.324219 Z M 106.425781 162.753906 " clip-rule="nonzero"/></clipPath><clipPath id="1ee4abefdf"><path d="M 108.710938 162.753906 C 107.449219 162.753906 106.425781 163.777344 106.425781 165.039062 C 106.425781 166.300781 107.449219 167.324219 108.710938 167.324219 C 109.972656 167.324219 110.992188 166.300781 110.992188 165.039062 C 110.992188 163.777344 109.972656 162.753906 108.710938 162.753906 Z M 108.710938 162.753906 " clip-rule="nonzero"/></clipPath><clipPath id="7c41b5b7f4"><path d="M 73.710938 52.40625 L 84.238281 52.40625 L 84.238281 62.9375 L 73.710938 62.9375 Z M 73.710938 52.40625 " clip-rule="nonzero"/></clipPath><clipPath id="6919bb60bb"><path d="M 78.972656 52.40625 C 76.066406 52.40625 73.710938 54.765625 73.710938 57.671875 C 73.710938 60.578125 76.066406 62.9375 78.972656 62.9375 C 81.882812 62.9375 84.238281 60.578125 84.238281 57.671875 C 84.238281 54.765625 81.882812 52.40625 78.972656 52.40625 Z M 78.972656 52.40625 " clip-rule="nonzero"/></clipPath><clipPath id="157b654fba"><path d="M 74.902344 53.597656 L 83.046875 53.597656 L 83.046875 61.746094 L 74.902344 61.746094 Z M 74.902344 53.597656 " clip-rule="nonzero"/></clipPath><clipPath id="6fb242917f"><path d="M 78.972656 53.597656 C 76.726562 53.597656 74.902344 55.421875 74.902344 57.671875 C 74.902344 59.921875 76.726562 61.746094 78.972656 61.746094 C 81.222656 61.746094 83.046875 59.921875 83.046875 57.671875 C 83.046875 55.421875 81.222656 53.597656 78.972656 53.597656 Z M 78.972656 53.597656 " clip-rule="nonzero"/></clipPath><clipPath id="255dfeea4c"><path d="M 76.691406 55.386719 L 81.257812 55.386719 L 81.257812 59.957031 L 76.691406 59.957031 Z M 76.691406 55.386719 " clip-rule="nonzero"/></clipPath><clipPath id="7d1d8e433a"><path d="M 78.972656 55.386719 C 77.714844 55.386719 76.691406 56.410156 76.691406 57.671875 C 76.691406 58.933594 77.714844 59.957031 78.972656 59.957031 C 80.234375 59.957031 81.257812 58.933594 81.257812 57.671875 C 81.257812 56.410156 80.234375 55.386719 78.972656 55.386719 Z M 78.972656 55.386719 " clip-rule="nonzero"/></clipPath><clipPath id="c287e5b399"><path d="M 174.507812 141.21875 L 186.195312 141.21875 L 186.195312 152.90625 L 174.507812 152.90625 Z M 174.507812 141.21875 " clip-rule="nonzero"/></clipPath><clipPath id="8817dc1464"><path d="M 180.351562 141.21875 C 177.125 141.21875 174.507812 143.832031 174.507812 147.0625 C 174.507812 150.289062 177.125 152.90625 180.351562 152.90625 C 183.578125 152.90625 186.195312 150.289062 186.195312 147.0625 C 186.195312 143.832031 183.578125 141.21875 180.351562 141.21875 Z M 180.351562 141.21875 " clip-rule="nonzero"/></clipPath><clipPath id="678aac97a1"><path d="M 175.832031 142.542969 L 184.871094 142.542969 L 184.871094 151.582031 L 175.832031 151.582031 Z M 175.832031 142.542969 " clip-rule="nonzero"/></clipPath><clipPath id="97ad27c7e8"><path d="M 180.351562 142.542969 C 177.855469 142.542969 175.832031 144.566406 175.832031 147.0625 C 175.832031 149.558594 177.855469 151.582031 180.351562 151.582031 C 182.847656 151.582031 184.871094 149.558594 184.871094 147.0625 C 184.871094 144.566406 182.847656 142.542969 180.351562 142.542969 Z M 180.351562 142.542969 " clip-rule="nonzero"/></clipPath><clipPath id="cf137fef0b"><path d="M 177.816406 144.527344 L 182.886719 144.527344 L 182.886719 149.597656 L 177.816406 149.597656 Z M 177.816406 144.527344 " clip-rule="nonzero"/></clipPath><clipPath id="3a99091594"><path d="M 180.351562 144.527344 C 178.953125 144.527344 177.816406 145.660156 177.816406 147.0625 C 177.816406 148.460938 178.953125 149.597656 180.351562 149.597656 C 181.75 149.597656 182.886719 148.460938 182.886719 147.0625 C 182.886719 145.660156 181.75 144.527344 180.351562 144.527344 Z M 180.351562 144.527344 " clip-rule="nonzero"/></clipPath><clipPath id="44bbbb5005"><path d="M 102.335938 70.804688 L 112.863281 70.804688 L 112.863281 81.332031 L 102.335938 81.332031 Z M 102.335938 70.804688 " clip-rule="nonzero"/></clipPath><clipPath id="c4eb5ead2a"><path d="M 107.601562 70.804688 C 104.691406 70.804688 102.335938 73.160156 102.335938 76.066406 C 102.335938 78.976562 104.691406 81.332031 107.601562 81.332031 C 110.507812 81.332031 112.863281 78.976562 112.863281 76.066406 C 112.863281 73.160156 110.507812 70.804688 107.601562 70.804688 Z M 107.601562 70.804688 " clip-rule="nonzero"/></clipPath><clipPath id="05d2b5b370"><path d="M 103.527344 71.996094 L 111.671875 71.996094 L 111.671875 80.140625 L 103.527344 80.140625 Z M 103.527344 71.996094 " clip-rule="nonzero"/></clipPath><clipPath id="36cc880d3d"><path d="M 107.601562 71.996094 C 105.351562 71.996094 103.527344 73.820312 103.527344 76.066406 C 103.527344 78.316406 105.351562 80.140625 107.601562 80.140625 C 109.847656 80.140625 111.671875 78.316406 111.671875 76.066406 C 111.671875 73.820312 109.847656 71.996094 107.601562 71.996094 Z M 107.601562 71.996094 " clip-rule="nonzero"/></clipPath><clipPath id="2134864b27"><path d="M 105.316406 73.785156 L 109.882812 73.785156 L 109.882812 78.351562 L 105.316406 78.351562 Z M 105.316406 73.785156 " clip-rule="nonzero"/></clipPath><clipPath id="83db824b5e"><path d="M 107.601562 73.785156 C 106.339844 73.785156 105.316406 74.808594 105.316406 76.066406 C 105.316406 77.328125 106.339844 78.351562 107.601562 78.351562 C 108.859375 78.351562 109.882812 77.328125 109.882812 76.066406 C 109.882812 74.808594 108.859375 73.785156 107.601562 73.785156 Z M 107.601562 73.785156 " clip-rule="nonzero"/></clipPath><clipPath id="f075611214"><path d="M 74.164062 189.070312 L 84.691406 189.070312 L 84.691406 199.601562 L 74.164062 199.601562 Z M 74.164062 189.070312 " clip-rule="nonzero"/></clipPath><clipPath id="9e78066ed1"><path d="M 79.425781 189.070312 C 76.519531 189.070312 74.164062 191.429688 74.164062 194.335938 C 74.164062 197.242188 76.519531 199.601562 79.425781 199.601562 C 82.335938 199.601562 84.691406 197.242188 84.691406 194.335938 C 84.691406 191.429688 82.335938 189.070312 79.425781 189.070312 Z M 79.425781 189.070312 " clip-rule="nonzero"/></clipPath><clipPath id="5a4ec5cd6f"><path d="M 75.355469 190.265625 L 83.5 190.265625 L 83.5 198.410156 L 75.355469 198.410156 Z M 75.355469 190.265625 " clip-rule="nonzero"/></clipPath><clipPath id="ff45d78ad7"><path d="M 79.425781 190.265625 C 77.179688 190.265625 75.355469 192.085938 75.355469 194.335938 C 75.355469 196.585938 77.179688 198.410156 79.425781 198.410156 C 81.675781 198.410156 83.5 196.585938 83.5 194.335938 C 83.5 192.085938 81.675781 190.265625 79.425781 190.265625 Z M 79.425781 190.265625 " clip-rule="nonzero"/></clipPath><clipPath id="2274f07c50"><path d="M 77.144531 192.054688 L 81.710938 192.054688 L 81.710938 196.621094 L 77.144531 196.621094 Z M 77.144531 192.054688 " clip-rule="nonzero"/></clipPath><clipPath id="cf9a54b54c"><path d="M 79.425781 192.054688 C 78.167969 192.054688 77.144531 193.074219 77.144531 194.335938 C 77.144531 195.597656 78.167969 196.621094 79.425781 196.621094 C 80.6875 196.621094 81.710938 195.597656 81.710938 194.335938 C 81.710938 193.074219 80.6875 192.054688 79.425781 192.054688 Z M 79.425781 192.054688 " clip-rule="nonzero"/></clipPath><clipPath id="d53d69b533"><path d="M 175.664062 94.996094 L 186.195312 94.996094 L 186.195312 105.527344 L 175.664062 105.527344 Z M 175.664062 94.996094 " clip-rule="nonzero"/></clipPath><clipPath id="bc47f745ff"><path d="M 180.929688 94.996094 C 178.023438 94.996094 175.664062 97.355469 175.664062 100.261719 C 175.664062 103.171875 178.023438 105.527344 180.929688 105.527344 C 183.839844 105.527344 186.195312 103.171875 186.195312 100.261719 C 186.195312 97.355469 183.839844 94.996094 180.929688 94.996094 Z M 180.929688 94.996094 " clip-rule="nonzero"/></clipPath><clipPath id="4c2e21f0e6"><path d="M 176.859375 96.191406 L 185.003906 96.191406 L 185.003906 104.335938 L 176.859375 104.335938 Z M 176.859375 96.191406 " clip-rule="nonzero"/></clipPath><clipPath id="382f7aa0fe"><path d="M 180.929688 96.191406 C 178.679688 96.191406 176.859375 98.011719 176.859375 100.261719 C 176.859375 102.511719 178.679688 104.335938 180.929688 104.335938 C 183.179688 104.335938 185.003906 102.511719 185.003906 100.261719 C 185.003906 98.011719 183.179688 96.191406 180.929688 96.191406 Z M 180.929688 96.191406 " clip-rule="nonzero"/></clipPath><clipPath id="5f913051c1"><path d="M 178.648438 97.980469 L 183.214844 97.980469 L 183.214844 102.546875 L 178.648438 102.546875 Z M 178.648438 97.980469 " clip-rule="nonzero"/></clipPath><clipPath id="1e6fac26ad"><path d="M 180.929688 97.980469 C 179.667969 97.980469 178.648438 99 178.648438 100.261719 C 178.648438 101.523438 179.667969 102.546875 180.929688 102.546875 C 182.191406 102.546875 183.214844 101.523438 183.214844 100.261719 C 183.214844 99 182.191406 97.980469 180.929688 97.980469 Z M 180.929688 97.980469 " clip-rule="nonzero"/></clipPath><clipPath id="38373001fe"><path d="M 310.199219 252.898438 L 337.5 252.898438 L 337.5 280.203125 L 310.199219 280.203125 Z M 310.199219 252.898438 " clip-rule="nonzero"/></clipPath><clipPath id="d978701a8b"><path d="M 323.847656 252.898438 C 316.308594 252.898438 310.199219 259.011719 310.199219 266.550781 C 310.199219 274.089844 316.308594 280.203125 323.847656 280.203125 C 331.386719 280.203125 337.5 274.089844 337.5 266.550781 C 337.5 259.011719 331.386719 252.898438 323.847656 252.898438 Z M 323.847656 252.898438 " clip-rule="nonzero"/></clipPath><clipPath id="a98f5e1814"><path d="M 313.289062 255.992188 L 334.40625 255.992188 L 334.40625 277.109375 L 313.289062 277.109375 Z M 313.289062 255.992188 " clip-rule="nonzero"/></clipPath><clipPath id="f9d53dace1"><path d="M 323.847656 255.992188 C 318.019531 255.992188 313.289062 260.71875 313.289062 266.550781 C 313.289062 272.382812 318.019531 277.109375 323.847656 277.109375 C 329.679688 277.109375 334.40625 272.382812 334.40625 266.550781 C 334.40625 260.71875 329.679688 255.992188 323.847656 255.992188 Z M 323.847656 255.992188 " clip-rule="nonzero"/></clipPath><clipPath id="44df464199"><path d="M 317.929688 260.628906 L 329.769531 260.628906 L 329.769531 272.472656 L 317.929688 272.472656 Z M 317.929688 260.628906 " clip-rule="nonzero"/></clipPath><clipPath id="aa1a62bf7f"><path d="M 323.847656 260.628906 C 320.578125 260.628906 317.929688 263.28125 317.929688 266.550781 C 317.929688 269.820312 320.578125 272.472656 323.847656 272.472656 C 327.117188 272.472656 329.769531 269.820312 329.769531 266.550781 C 329.769531 263.28125 327.117188 260.628906 323.847656 260.628906 Z M 323.847656 260.628906 " clip-rule="nonzero"/></clipPath><clipPath id="b327ec2485"><path d="M 260.085938 141.21875 L 270.613281 141.21875 L 270.613281 151.746094 L 260.085938 151.746094 Z M 260.085938 141.21875 " clip-rule="nonzero"/></clipPath><clipPath id="1361f060d1"><path d="M 265.351562 141.21875 C 262.441406 141.21875 260.085938 143.574219 260.085938 146.484375 C 260.085938 149.390625 262.441406 151.746094 265.351562 151.746094 C 268.257812 151.746094 270.613281 149.390625 270.613281 146.484375 C 270.613281 143.574219 268.257812 141.21875 265.351562 141.21875 Z M 265.351562 141.21875 " clip-rule="nonzero"/></clipPath><clipPath id="94461c7903"><path d="M 261.277344 142.410156 L 269.421875 142.410156 L 269.421875 150.554688 L 261.277344 150.554688 Z M 261.277344 142.410156 " clip-rule="nonzero"/></clipPath><clipPath id="b1070cf9b7"><path d="M 265.351562 142.410156 C 263.101562 142.410156 261.277344 144.234375 261.277344 146.484375 C 261.277344 148.730469 263.101562 150.554688 265.351562 150.554688 C 267.597656 150.554688 269.421875 148.730469 269.421875 146.484375 C 269.421875 144.234375 267.597656 142.410156 265.351562 142.410156 Z M 265.351562 142.410156 " clip-rule="nonzero"/></clipPath><clipPath id="c93e8753ed"><path d="M 263.066406 144.359375 L 267.632812 144.359375 L 267.632812 148.929688 L 263.066406 148.929688 Z M 263.066406 144.359375 " clip-rule="nonzero"/></clipPath><clipPath id="6b458d3532"><path d="M 265.351562 144.359375 C 264.089844 144.359375 263.066406 145.382812 263.066406 146.644531 C 263.066406 147.90625 264.089844 148.929688 265.351562 148.929688 C 266.609375 148.929688 267.632812 147.90625 267.632812 146.644531 C 267.632812 145.382812 266.609375 144.359375 265.351562 144.359375 Z M 265.351562 144.359375 " clip-rule="nonzero"/></clipPath></defs><rect x="-37.5" width="450" fill="#ffffff" y="-37.499999" height="449.999989" fill-opacity="1"/><rect x="-37.5" width="450" fill="#000000" y="-37.499999" height="449.999989" fill-opacity="1"/><g clip-path="url(#14fdfd0cda)"><path fill="#ffffff" d="M 0.0078125 0 L 375.007812 0 L 375.007812 375 L 0.0078125 375 Z M 0.0078125 0 " fill-opacity="1" fill-rule="nonzero"/></g><g clip-path="url(#1a9257a599)"><path fill="#000000" d="M 292.253906 200.277344 C 292.25 200.246094 292.25 200.214844 292.242188 200.183594 L 285.558594 176.855469 L 276.46875 145.066406 L 255.578125 71.640625 C 255.566406 71.605469 255.550781 71.574219 255.535156 71.542969 L 250.558594 54.039062 C 250.449219 53.65625 250.148438 53.355469 249.765625 53.246094 C 249.382812 53.144531 240.296875 50.683594 231.320312 53.242188 C 222.332031 55.808594 216.003906 62.617188 215.742188 62.910156 C 215.691406 62.964844 215.65625 63.023438 215.617188 63.085938 L 215.625 55.789062 C 215.625 55.332031 215.351562 54.917969 214.929688 54.734375 C 214.449219 54.53125 203.015625 49.746094 189.777344 49.746094 C 176.539062 49.746094 165.253906 54.488281 164.773438 54.6875 C 164.410156 54.84375 164.171875 55.175781 164.105469 55.558594 L 164.105469 34.460938 C 164.105469 34.0625 163.898438 33.691406 163.554688 33.484375 C 163.273438 33.3125 156.515625 29.277344 145.625 29.277344 C 134.734375 29.277344 127.972656 33.3125 127.691406 33.484375 C 127.539062 33.574219 127.417969 33.707031 127.328125 33.851562 L 127.328125 17.039062 C 127.328125 16.597656 127.074219 16.191406 126.675781 16.007812 C 126.273438 15.820312 116.871094 11.414062 108.84375 11.414062 C 100.8125 11.414062 91.410156 15.820312 91.015625 16.007812 C 90.613281 16.195312 90.359375 16.597656 90.359375 17.039062 L 90.359375 18.132812 C 90.242188 17.949219 90.070312 17.796875 89.859375 17.707031 C 89.644531 17.617188 84.59375 15.414062 80.257812 15.414062 C 75.917969 15.414062 70.867188 17.617188 70.65625 17.710938 C 70.242188 17.894531 69.972656 18.300781 69.972656 18.757812 L 69.972656 226.332031 C 69.972656 226.746094 70.199219 227.125 70.5625 227.332031 C 70.777344 227.449219 75.863281 230.242188 80.257812 230.242188 C 84.648438 230.242188 89.738281 227.449219 89.949219 227.332031 C 90.3125 227.128906 90.542969 226.746094 90.542969 226.332031 L 90.542969 225.234375 C 90.65625 225.414062 90.8125 225.558594 91.015625 225.648438 C 91.410156 225.835938 100.8125 230.242188 108.84375 230.242188 C 116.871094 230.242188 126.273438 225.835938 126.667969 225.648438 C 126.878906 225.546875 127.046875 225.390625 127.160156 225.199219 C 127.203125 225.539062 127.390625 225.851562 127.691406 226.035156 C 127.972656 226.207031 134.738281 230.242188 145.625 230.242188 C 156.515625 230.242188 163.273438 226.207031 163.554688 226.035156 C 163.832031 225.867188 164.019531 225.585938 164.078125 225.269531 L 164.078125 226.113281 C 164.078125 226.570312 164.351562 226.980469 164.773438 227.164062 C 165.253906 227.363281 176.539062 232.105469 189.777344 232.105469 C 203.015625 232.105469 214.453125 227.320312 214.929688 227.121094 C 215.351562 226.941406 215.625 226.527344 215.625 226.066406 L 215.605469 207.890625 C 215.609375 207.847656 215.625 207.808594 215.625 207.765625 L 215.605469 197.40625 C 215.617188 197.339844 215.625 197.273438 215.625 197.203125 L 215.585938 183.527344 L 215.585938 183.492188 L 215.558594 155.371094 L 215.628906 84.679688 C 215.628906 84.65625 215.621094 84.632812 215.621094 84.609375 L 215.628906 74.09375 C 215.628906 74.054688 215.617188 74.011719 215.609375 73.972656 L 215.621094 64.460938 L 218.769531 75.539062 C 218.75 75.699219 218.761719 75.859375 218.804688 76.011719 L 223.804688 93.496094 C 223.8125 93.53125 223.8125 93.574219 223.824219 93.609375 L 241.589844 155.757812 L 247.898438 177.925781 L 253.671875 198.28125 C 253.679688 198.320312 253.703125 198.351562 253.71875 198.386719 L 258.695312 215.878906 C 258.730469 216.015625 258.808594 216.136719 258.898438 216.246094 L 262.210938 227.828125 C 262.320312 228.207031 262.621094 228.503906 263 228.613281 C 263.25 228.679688 267.230469 229.773438 272.488281 229.773438 C 275.210938 229.773438 278.273438 229.480469 281.332031 228.609375 C 290.320312 226.042969 296.734375 219.164062 297.003906 218.875 C 297.273438 218.578125 297.371094 218.167969 297.261719 217.78125 Z M 213.339844 225.289062 C 210.667969 226.3125 200.726562 229.816406 189.773438 229.816406 C 178.828125 229.816406 169.007812 226.347656 166.363281 225.335938 L 166.351562 213.65625 C 166.351562 213.476562 166.296875 213.308594 166.210938 213.160156 L 166.214844 209.429688 C 169.710938 210.730469 179.105469 213.808594 189.777344 213.808594 C 200.300781 213.808594 209.679688 210.789062 213.324219 209.449219 Z M 108.84375 13.699219 C 115.199219 13.699219 122.796875 16.800781 125.039062 17.78125 L 125.039062 36.539062 C 121.941406 35.242188 114.988281 32.664062 108.84375 32.664062 C 102.695312 32.664062 95.742188 35.246094 92.648438 36.539062 L 92.648438 17.78125 C 94.886719 16.796875 102.476562 13.699219 108.84375 13.699219 Z M 161.820312 209.339844 C 160.050781 210.25 154.136719 212.914062 145.625 212.914062 C 137.113281 212.914062 131.191406 210.25 129.429688 209.339844 L 129.429688 206.085938 C 132.125 207.320312 137.8125 209.398438 145.625 209.398438 C 153.441406 209.398438 159.125 207.320312 161.820312 206.085938 Z M 161.820312 53.429688 C 159.128906 52.191406 153.441406 50.117188 145.625 50.117188 C 137.808594 50.117188 132.121094 52.191406 129.429688 53.429688 L 129.429688 50.175781 C 131.199219 49.265625 137.113281 46.601562 145.625 46.601562 C 154.136719 46.601562 160.050781 49.265625 161.820312 50.175781 Z M 129.425781 55.972656 C 131.183594 55.0625 137.078125 52.398438 145.621094 52.398438 C 154.132812 52.398438 160.046875 55.0625 161.816406 55.972656 L 161.816406 203.539062 C 160.054688 204.449219 154.167969 207.113281 145.621094 207.113281 C 137.109375 207.113281 131.1875 204.449219 129.425781 203.539062 Z M 161.820312 35.136719 L 161.820312 47.628906 C 159.128906 46.390625 153.441406 44.3125 145.625 44.3125 C 137.808594 44.3125 132.121094 46.390625 129.429688 47.628906 L 129.429688 35.136719 C 131.199219 34.230469 137.113281 31.566406 145.625 31.566406 C 154.136719 31.566406 160.050781 34.230469 161.820312 35.136719 Z M 125.039062 207.957031 C 122.796875 208.941406 115.195312 212.035156 108.84375 212.035156 C 102.488281 212.035156 94.886719 208.933594 92.648438 207.957031 L 92.648438 174.695312 C 95.597656 175.316406 102.648438 176.652344 108.84375 176.652344 C 115.035156 176.652344 122.085938 175.316406 125.039062 174.695312 Z M 92.640625 39.03125 C 94.882812 38.054688 102.484375 34.953125 108.835938 34.953125 C 115.1875 34.953125 122.792969 38.054688 125.03125 39.03125 L 125.03125 72.292969 C 122.082031 71.671875 115.03125 70.335938 108.835938 70.335938 C 102.644531 70.335938 95.59375 71.671875 92.640625 72.292969 Z M 92.640625 108.042969 L 125.039062 108.042969 L 125.039062 138.945312 L 92.640625 138.945312 Z M 125.039062 105.757812 L 92.640625 105.757812 L 92.640625 74.632812 C 95.148438 74.089844 102.566406 72.617188 108.835938 72.617188 C 115.105469 72.617188 122.527344 74.089844 125.03125 74.632812 L 125.03125 105.757812 Z M 92.640625 141.230469 L 125.039062 141.230469 L 125.039062 172.355469 C 122.53125 172.898438 115.113281 174.371094 108.84375 174.371094 C 102.570312 174.371094 95.152344 172.898438 92.648438 172.355469 L 92.648438 141.230469 Z M 92.640625 223.871094 L 92.640625 210.449219 C 95.738281 211.746094 102.691406 214.324219 108.835938 214.324219 C 114.984375 214.324219 121.9375 211.742188 125.03125 210.449219 L 125.03125 223.871094 C 122.785156 224.851562 115.1875 227.949219 108.835938 227.949219 C 102.484375 227.949219 94.886719 224.851562 92.640625 223.871094 Z M 129.425781 211.886719 C 132.121094 213.121094 137.808594 215.199219 145.621094 215.199219 C 153.4375 215.199219 159.117188 213.121094 161.816406 211.886719 L 161.816406 224.375 C 160.054688 225.285156 154.167969 227.949219 145.621094 227.949219 C 137.109375 227.949219 131.1875 225.285156 129.425781 224.375 Z M 166.207031 68.761719 C 166.296875 68.597656 166.347656 68.410156 166.347656 68.210938 L 166.363281 56.527344 C 169.003906 55.507812 178.828125 52.042969 189.773438 52.042969 C 200.726562 52.042969 210.667969 55.546875 213.339844 56.570312 L 213.320312 72.417969 C 209.671875 71.074219 200.296875 68.054688 189.773438 68.054688 C 179.105469 68.054688 169.710938 71.132812 166.210938 72.433594 Z M 166.238281 184.359375 L 166.25 177.359375 L 166.285156 169.816406 L 166.277344 162.726562 L 166.285156 159.226562 L 166.277344 150.078125 L 166.285156 140.925781 L 166.242188 97.574219 C 166.3125 97.429688 166.355469 97.265625 166.355469 97.089844 L 166.367188 85.410156 C 169.007812 84.394531 178.832031 80.929688 189.777344 80.929688 C 200.695312 80.929688 210.605469 84.410156 213.3125 85.441406 L 213.257812 140.929688 L 213.265625 150.078125 L 213.257812 159.226562 L 213.261719 163.117188 L 213.257812 169.816406 L 213.296875 183.140625 L 213.300781 184.636719 L 213.316406 196.4375 C 210.609375 197.472656 200.699219 200.957031 189.78125 200.957031 C 178.835938 200.957031 169.015625 197.488281 166.371094 196.472656 L 166.363281 184.792969 C 166.351562 184.640625 166.308594 184.496094 166.238281 184.359375 Z M 213.3125 83 C 209.65625 81.660156 200.289062 78.644531 189.773438 78.644531 C 179.246094 78.644531 169.957031 81.640625 166.355469 82.96875 L 166.367188 74.828125 C 169.007812 73.808594 178.832031 70.339844 189.777344 70.339844 C 200.707031 70.339844 210.632812 73.832031 213.324219 74.863281 Z M 189.773438 203.246094 C 200.289062 203.246094 209.65625 200.234375 213.3125 198.886719 L 213.320312 206.992188 C 210.632812 208.027344 200.707031 211.515625 189.773438 211.515625 C 178.828125 211.515625 169.007812 208.046875 166.363281 207.035156 L 166.351562 198.921875 C 169.957031 200.25 179.242188 203.246094 189.773438 203.246094 Z M 80.257812 17.699219 C 83.246094 17.699219 86.789062 18.949219 88.253906 19.519531 L 88.253906 27.023438 C 86.402344 26.492188 83.164062 25.695312 80.257812 25.695312 C 77.347656 25.695312 74.109375 26.484375 72.257812 27.023438 L 72.257812 19.519531 C 73.722656 18.953125 77.269531 17.699219 80.257812 17.699219 Z M 88.253906 29.410156 L 88.253906 214.050781 C 86.804688 214.644531 83.246094 215.96875 80.257812 215.96875 C 77.265625 215.96875 73.710938 214.644531 72.257812 214.050781 L 72.257812 29.410156 C 73.78125 28.945312 77.289062 27.980469 80.257812 27.980469 C 83.226562 27.980469 86.734375 28.945312 88.253906 29.410156 Z M 72.257812 225.628906 L 72.257812 216.507812 C 74.140625 217.222656 77.359375 218.253906 80.257812 218.253906 C 83.15625 218.253906 86.371094 217.226562 88.253906 216.507812 L 88.253906 225.628906 C 86.863281 226.320312 83.269531 227.949219 80.257812 227.949219 C 77.25 227.949219 73.652344 226.320312 72.257812 225.628906 Z M 280.710938 226.40625 C 273.636719 228.425781 266.34375 227.042969 264.230469 226.5625 L 260.988281 215.222656 C 260.945312 215.078125 260.875 214.949219 260.777344 214.839844 L 259.808594 211.4375 C 261.503906 211.765625 264.246094 212.175781 267.46875 212.175781 C 270.191406 212.175781 273.253906 211.886719 276.320312 211.011719 C 282.949219 209.121094 288.171875 204.886719 290.566406 202.675781 L 294.886719 217.773438 C 293.328125 219.308594 287.808594 224.378906 280.710938 226.40625 Z M 248.542969 55.308594 L 252.839844 70.417969 C 249.632812 69.800781 242.960938 68.957031 236.339844 70.847656 C 229.640625 72.757812 224.421875 77.027344 222.085938 79.199219 L 221.121094 75.828125 C 221.144531 75.671875 221.136719 75.511719 221.089844 75.359375 L 217.867188 64.015625 C 219.40625 62.488281 224.871094 57.46875 231.949219 55.449219 C 239.023438 53.433594 246.402344 54.824219 248.542969 55.308594 Z M 255.964844 197.628906 C 255.925781 197.496094 255.859375 197.378906 255.777344 197.273438 L 240.984375 145.300781 L 226.140625 93.386719 C 226.15625 93.246094 226.152344 93.097656 226.105469 92.953125 L 222.882812 81.613281 C 224.421875 80.085938 229.886719 75.066406 236.960938 73.046875 C 244.023438 71.035156 251.390625 72.417969 253.542969 72.902344 L 271.652344 136.554688 L 274.273438 145.714844 L 276.671875 154.152344 L 283.269531 177.171875 L 289.855469 200.1875 C 288.28125 201.738281 282.757812 206.796875 275.691406 208.8125 C 268.617188 210.832031 261.328125 209.453125 259.210938 208.96875 Z M 255.964844 197.628906 " fill-opacity="1" fill-rule="nonzero"/></g><g clip-path="url(#1471e49234)"><path fill="#ffffff" d="M 92.4375 39.382812 L 124.980469 39.382812 L 124.980469 172.601562 L 92.4375 172.601562 Z M 92.4375 39.382812 " fill-opacity="1" fill-rule="nonzero"/></g><g fill="#000000" fill-opacity="1"><g transform="translate(27.721343, 336.442243)"><g><path d="M 11.96875 0 L 5.765625 0 L 5.765625 -72.984375 L 11.96875 -72.984375 Z M 11.96875 0 "/></g></g></g><g fill="#000000" fill-opacity="1"><g transform="translate(45.44903, 336.442243)"><g><path d="M 44.90625 0.984375 C 38.90625 0.984375 33.398438 0.0703125 28.390625 -1.75 C 23.378906 -3.582031 19.070312 -6.160156 15.46875 -9.484375 C 11.875 -12.816406 9.085938 -16.78125 7.109375 -21.375 C 5.128906 -25.96875 4.140625 -30.992188 4.140625 -36.453125 L 4.140625 -36.625 C 4.140625 -42.144531 5.113281 -47.1875 7.0625 -51.75 C 9.007812 -56.3125 11.796875 -60.253906 15.421875 -63.578125 C 19.054688 -66.910156 23.363281 -69.488281 28.34375 -71.3125 C 33.320312 -73.144531 38.84375 -74.0625 44.90625 -74.0625 C 50.96875 -74.0625 56.488281 -73.144531 61.46875 -71.3125 C 66.445312 -69.488281 70.75 -66.910156 74.375 -63.578125 C 78.007812 -60.253906 80.800781 -56.3125 82.75 -51.75 C 84.707031 -47.1875 85.6875 -42.144531 85.6875 -36.625 L 85.6875 -36.453125 C 85.6875 -30.992188 84.707031 -25.96875 82.75 -21.375 C 80.800781 -16.78125 78.007812 -12.816406 74.375 -9.484375 C 70.75 -6.160156 66.445312 -3.582031 61.46875 -1.75 C 56.488281 0.0703125 50.96875 0.984375 44.90625 0.984375 Z M 44.90625 -4.859375 C 51.507812 -4.859375 57.390625 -6.160156 62.546875 -8.765625 C 67.710938 -11.378906 71.796875 -15.054688 74.796875 -19.796875 C 77.796875 -24.535156 79.296875 -30.085938 79.296875 -36.453125 L 79.296875 -36.546875 C 79.296875 -42.960938 77.796875 -48.539062 74.796875 -53.28125 C 71.796875 -58.019531 67.710938 -61.691406 62.546875 -64.296875 C 57.390625 -66.910156 51.507812 -68.21875 44.90625 -68.21875 C 38.363281 -68.21875 32.5 -66.925781 27.3125 -64.34375 C 22.125 -61.769531 18.046875 -58.113281 15.078125 -53.375 C 12.109375 -48.632812 10.625 -43.023438 10.625 -36.546875 L 10.625 -36.453125 C 10.625 -30.085938 12.109375 -24.535156 15.078125 -19.796875 C 18.046875 -15.054688 22.125 -11.378906 27.3125 -8.765625 C 32.5 -6.160156 38.363281 -4.859375 44.90625 -4.859375 Z M 44.90625 -4.859375 "/></g></g></g><g fill="#000000" fill-opacity="1"><g transform="translate(129.227844, 336.442243)"><g><path d="M 37.34375 0 L 31.046875 0 L 31.046875 -67.140625 L 1.796875 -67.140625 L 1.796875 -72.984375 L 66.515625 -72.984375 L 66.515625 -67.140625 L 37.34375 -67.140625 Z M 37.34375 0 "/></g></g></g><g fill="#000000" fill-opacity="1"><g transform="translate(174.507634, 335.812068)"><g><path d="M 16.609375 -26.46875 C 19.398438 -26.46875 21.75 -26.160156 23.65625 -25.546875 C 25.5625 -24.929688 27.015625 -23.894531 28.015625 -22.4375 C 29.015625 -20.976562 29.515625 -18.972656 29.515625 -16.421875 L 29.515625 0 L 24.90625 0 L 24.90625 -15.734375 C 24.90625 -18.160156 24.210938 -19.875 22.828125 -20.875 C 21.441406 -21.875 19.289062 -22.375 16.375 -22.375 C 15.050781 -22.375 13.585938 -22.296875 11.984375 -22.140625 C 10.390625 -21.984375 8.851562 -21.785156 7.375 -21.546875 L 7.375 0 L 2.8125 0 L 2.8125 -37.40625 L 7.375 -37.40625 L 7.375 -25.6875 C 10.789062 -26.207031 13.867188 -26.46875 16.609375 -26.46875 Z M 16.609375 -26.46875 "/></g></g></g><g fill="#000000" fill-opacity="1"><g transform="translate(206.795168, 335.812068)"><g><path d="M 31.140625 -12.5 L 31.140625 -11.390625 L 6.828125 -11.390625 C 7.191406 -9.054688 8.296875 -7.15625 10.140625 -5.6875 C 11.992188 -4.226562 14.394531 -3.5 17.34375 -3.5 C 19.613281 -3.5 21.640625 -3.820312 23.421875 -4.46875 C 25.210938 -5.113281 26.675781 -5.789062 27.8125 -6.5 L 29.84375 -2.859375 C 28.519531 -2.054688 26.816406 -1.285156 24.734375 -0.546875 C 22.660156 0.179688 20.164062 0.546875 17.25 0.546875 C 14.238281 0.546875 11.585938 0.0234375 9.296875 -1.015625 C 7.003906 -2.054688 5.21875 -3.582031 3.9375 -5.59375 C 2.664062 -7.613281 2.03125 -10.054688 2.03125 -12.921875 L 2.03125 -13 C 2.03125 -15.550781 2.601562 -17.84375 3.75 -19.875 C 4.90625 -21.90625 6.570312 -23.519531 8.75 -24.71875 C 10.9375 -25.914062 13.539062 -26.515625 16.5625 -26.515625 C 19.414062 -26.515625 21.941406 -25.96875 24.140625 -24.875 C 26.335938 -23.789062 28.050781 -22.203125 29.28125 -20.109375 C 30.519531 -18.015625 31.140625 -15.476562 31.140625 -12.5 Z M 16.5625 -22.46875 C 14.039062 -22.46875 11.914062 -21.84375 10.1875 -20.59375 C 8.46875 -19.351562 7.378906 -17.640625 6.921875 -15.453125 L 26.25 -15.453125 C 25.9375 -17.453125 24.925781 -19.117188 23.21875 -20.453125 C 21.507812 -21.796875 19.289062 -22.46875 16.5625 -22.46875 Z M 16.5625 -22.46875 "/></g></g></g><g fill="#000000" fill-opacity="1"><g transform="translate(239.95908, 335.812068)"><g><path d="M 30.078125 -24.671875 L 30.078125 10.140625 L 25.5 10.140625 L 25.5 -0.5 C 24.363281 -0.226562 23.070312 0.0078125 21.625 0.21875 C 20.1875 0.4375 18.804688 0.546875 17.484375 0.546875 C 14.253906 0.546875 11.492188 -0.0195312 9.203125 -1.15625 C 6.910156 -2.289062 5.148438 -3.875 3.921875 -5.90625 C 2.691406 -7.9375 2.078125 -10.289062 2.078125 -12.96875 L 2.078125 -13.046875 C 2.078125 -15.722656 2.710938 -18.066406 3.984375 -20.078125 C 5.265625 -22.097656 7.085938 -23.675781 9.453125 -24.8125 C 11.816406 -25.945312 14.597656 -26.515625 17.796875 -26.515625 C 20.140625 -26.515625 22.320312 -26.335938 24.34375 -25.984375 C 26.375 -25.640625 28.285156 -25.203125 30.078125 -24.671875 Z M 17.671875 -3.59375 C 18.992188 -3.59375 20.367188 -3.703125 21.796875 -3.921875 C 23.222656 -4.140625 24.457031 -4.382812 25.5 -4.65625 L 25.5 -21.625 C 24.363281 -21.875 23.132812 -22.066406 21.8125 -22.203125 C 20.488281 -22.347656 19.148438 -22.421875 17.796875 -22.421875 C 14.203125 -22.421875 11.453125 -21.539062 9.546875 -19.78125 C 7.640625 -18.03125 6.6875 -15.785156 6.6875 -13.046875 L 6.6875 -12.96875 C 6.6875 -10.195312 7.613281 -7.941406 9.46875 -6.203125 C 11.332031 -4.460938 14.066406 -3.59375 17.671875 -3.59375 Z M 17.671875 -3.59375 "/></g></g></g><g fill="#000000" fill-opacity="1"><g transform="translate(272.846239, 335.812068)"><g><path d="M 15.953125 0.46875 C 13.160156 0.46875 10.785156 0.148438 8.828125 -0.484375 C 6.878906 -1.117188 5.390625 -2.171875 4.359375 -3.640625 C 3.328125 -5.117188 2.8125 -7.117188 2.8125 -9.640625 L 2.8125 -25.640625 L 7.375 -25.640625 L 7.375 -10.140625 C 7.375 -7.710938 8.070312 -6 9.46875 -5 C 10.875 -4 13.035156 -3.5 15.953125 -3.5 C 17.304688 -3.5 18.796875 -3.582031 20.421875 -3.75 C 22.054688 -3.925781 23.628906 -4.132812 25.140625 -4.375 L 25.140625 -25.640625 L 29.75 -25.640625 L 29.75 -1.015625 C 27.414062 -0.617188 25 -0.273438 22.5 0.015625 C 20.007812 0.316406 17.828125 0.46875 15.953125 0.46875 Z M 15.953125 0.46875 "/></g></g></g><g fill="#000000" fill-opacity="1"><g transform="translate(305.364395, 335.812068)"><g><path d="M 31.140625 -12.5 L 31.140625 -11.390625 L 6.828125 -11.390625 C 7.191406 -9.054688 8.296875 -7.15625 10.140625 -5.6875 C 11.992188 -4.226562 14.394531 -3.5 17.34375 -3.5 C 19.613281 -3.5 21.640625 -3.820312 23.421875 -4.46875 C 25.210938 -5.113281 26.675781 -5.789062 27.8125 -6.5 L 29.84375 -2.859375 C 28.519531 -2.054688 26.816406 -1.285156 24.734375 -0.546875 C 22.660156 0.179688 20.164062 0.546875 17.25 0.546875 C 14.238281 0.546875 11.585938 0.0234375 9.296875 -1.015625 C 7.003906 -2.054688 5.21875 -3.582031 3.9375 -5.59375 C 2.664062 -7.613281 2.03125 -10.054688 2.03125 -12.921875 L 2.03125 -13 C 2.03125 -15.550781 2.601562 -17.84375 3.75 -19.875 C 4.90625 -21.90625 6.570312 -23.519531 8.75 -24.71875 C 10.9375 -25.914062 13.539062 -26.515625 16.5625 -26.515625 C 19.414062 -26.515625 21.941406 -25.96875 24.140625 -24.875 C 26.335938 -23.789062 28.050781 -22.203125 29.28125 -20.109375 C 30.519531 -18.015625 31.140625 -15.476562 31.140625 -12.5 Z M 16.5625 -22.46875 C 14.039062 -22.46875 11.914062 -21.84375 10.1875 -20.59375 C 8.46875 -19.351562 7.378906 -17.640625 6.921875 -15.453125 L 26.25 -15.453125 C 25.9375 -17.453125 24.925781 -19.117188 23.21875 -20.453125 C 21.507812 -21.796875 19.289062 -22.46875 16.5625 -22.46875 Z M 16.5625 -22.46875 "/></g></g></g><g clip-path="url(#6fde194c40)"><g clip-path="url(#9edca6e866)"><path fill="#000000" d="M 264.3125 189.070312 L 274.84375 189.070312 L 274.84375 199.601562 L 264.3125 199.601562 Z M 264.3125 189.070312 " fill-opacity="1" fill-rule="nonzero"/></g></g><g clip-path="url(#d44b73b033)"><g clip-path="url(#e7595442e4)"><path fill="#ffffff" d="M 265.503906 190.265625 L 273.648438 190.265625 L 273.648438 198.410156 L 265.503906 198.410156 Z M 265.503906 190.265625 " fill-opacity="1" fill-rule="nonzero"/></g></g><g clip-path="url(#e772a93218)"><g clip-path="url(#d0eb48c886)"><path fill="#000000" d="M 267.292969 192.054688 L 271.859375 192.054688 L 271.859375 196.621094 L 267.292969 196.621094 Z M 267.292969 192.054688 " fill-opacity="1" fill-rule="nonzero"/></g></g><g clip-path="url(#13afda7b84)"><g clip-path="url(#a0322bf9b6)"><path fill="#000000" d="M 244.320312 92.460938 L 254.851562 92.460938 L 254.851562 102.992188 L 244.320312 102.992188 Z M 244.320312 92.460938 " fill-opacity="1" fill-rule="nonzero"/></g></g><g clip-path="url(#72f7d703ef)"><g clip-path="url(#583157751a)"><path fill="#ffffff" d="M 245.511719 93.65625 L 253.65625 93.65625 L 253.65625 101.800781 L 245.511719 101.800781 Z M 245.511719 93.65625 " fill-opacity="1" fill-rule="nonzero"/></g></g><g clip-path="url(#672f270122)"><g clip-path="url(#37ef6e60c8)"><path fill="#000000" d="M 247.300781 95.445312 L 251.867188 95.445312 L 251.867188 100.011719 L 247.300781 100.011719 Z M 247.300781 95.445312 " fill-opacity="1" fill-rule="nonzero"/></g></g><g clip-path="url(#7fd48357e0)"><g clip-path="url(#1f7be8b3fd)"><path fill="#000000" d="M 197.402344 175.527344 L 207.933594 175.527344 L 207.933594 186.058594 L 197.402344 186.058594 Z M 197.402344 175.527344 " fill-opacity="1" fill-rule="nonzero"/></g></g><g clip-path="url(#aa9f2eaa02)"><g clip-path="url(#dbd2ea0c04)"><path fill="#ffffff" d="M 198.597656 176.71875 L 206.742188 176.71875 L 206.742188 184.863281 L 198.597656 184.863281 Z M 198.597656 176.71875 " fill-opacity="1" fill-rule="nonzero"/></g></g><g clip-path="url(#b8e8c45510)"><g clip-path="url(#a03269e0bf)"><path fill="#000000" d="M 200.386719 178.507812 L 204.953125 178.507812 L 204.953125 183.074219 L 200.386719 183.074219 Z M 200.386719 178.507812 " fill-opacity="1" fill-rule="nonzero"/></g></g><g clip-path="url(#02697df8dd)"><g clip-path="url(#6a094ea24a)"><path fill="#000000" d="M 142.394531 64.410156 L 152.925781 64.410156 L 152.925781 74.941406 L 142.394531 74.941406 Z M 142.394531 64.410156 " fill-opacity="1" fill-rule="nonzero"/></g></g><g clip-path="url(#3359e5b502)"><g clip-path="url(#a23f7bee51)"><path fill="#ffffff" d="M 143.585938 65.605469 L 151.730469 65.605469 L 151.730469 73.75 L 143.585938 73.75 Z M 143.585938 65.605469 " fill-opacity="1" fill-rule="nonzero"/></g></g><g clip-path="url(#eb636d34d5)"><g clip-path="url(#343ce9e630)"><path fill="#000000" d="M 145.375 67.394531 L 149.945312 67.394531 L 149.945312 71.960938 L 145.375 71.960938 Z M 145.375 67.394531 " fill-opacity="1" fill-rule="nonzero"/></g></g><g clip-path="url(#b1a232bd47)"><g clip-path="url(#d062ad55db)"><path fill="#000000" d="M 146.804688 191.3125 L 157.332031 191.3125 L 157.332031 201.84375 L 146.804688 201.84375 Z M 146.804688 191.3125 " fill-opacity="1" fill-rule="nonzero"/></g></g><g clip-path="url(#457328f2de)"><g clip-path="url(#964fb186ad)"><path fill="#ffffff" d="M 147.996094 192.503906 L 156.140625 192.503906 L 156.140625 200.648438 L 147.996094 200.648438 Z M 147.996094 192.503906 " fill-opacity="1" fill-rule="nonzero"/></g></g><g clip-path="url(#209d29aae1)"><g clip-path="url(#0f99a50194)"><path fill="#000000" d="M 149.785156 194.292969 L 154.351562 194.292969 L 154.351562 198.863281 L 149.785156 198.863281 Z M 149.785156 194.292969 " fill-opacity="1" fill-rule="nonzero"/></g></g><g clip-path="url(#48543f20c1)"><g clip-path="url(#b5eac5f6fa)"><path fill="#000000" d="M 134.171875 127.808594 L 144.992188 127.808594 L 144.992188 138.625 L 134.171875 138.625 Z M 134.171875 127.808594 " fill-opacity="1" fill-rule="nonzero"/></g></g><g clip-path="url(#b90b39733e)"><g clip-path="url(#1a82a2f816)"><path fill="#ffffff" d="M 135.398438 129.03125 L 143.765625 129.03125 L 143.765625 137.402344 L 135.398438 137.402344 Z M 135.398438 129.03125 " fill-opacity="1" fill-rule="nonzero"/></g></g><g clip-path="url(#f2dc1a3f63)"><g clip-path="url(#31c79baaf1)"><path fill="#000000" d="M 137.234375 130.871094 L 141.925781 130.871094 L 141.925781 135.5625 L 137.234375 135.5625 Z M 137.234375 130.871094 " fill-opacity="1" fill-rule="nonzero"/></g></g><g clip-path="url(#a3f0bb38f3)"><g clip-path="url(#315bdc1ba8)"><path fill="#000000" d="M 103.445312 159.773438 L 113.976562 159.773438 L 113.976562 170.304688 L 103.445312 170.304688 Z M 103.445312 159.773438 " fill-opacity="1" fill-rule="nonzero"/></g></g><g clip-path="url(#2affd4e895)"><g clip-path="url(#b72b2d541d)"><path fill="#ffffff" d="M 104.636719 160.96875 L 112.78125 160.96875 L 112.78125 169.113281 L 104.636719 169.113281 Z M 104.636719 160.96875 " fill-opacity="1" fill-rule="nonzero"/></g></g><g clip-path="url(#15d3986bd1)"><g clip-path="url(#1ee4abefdf)"><path fill="#000000" d="M 106.425781 162.753906 L 110.992188 162.753906 L 110.992188 167.324219 L 106.425781 167.324219 Z M 106.425781 162.753906 " fill-opacity="1" fill-rule="nonzero"/></g></g><g clip-path="url(#7c41b5b7f4)"><g clip-path="url(#6919bb60bb)"><path fill="#000000" d="M 73.710938 52.40625 L 84.238281 52.40625 L 84.238281 62.9375 L 73.710938 62.9375 Z M 73.710938 52.40625 " fill-opacity="1" fill-rule="nonzero"/></g></g><g clip-path="url(#157b654fba)"><g clip-path="url(#6fb242917f)"><path fill="#ffffff" d="M 74.902344 53.597656 L 83.046875 53.597656 L 83.046875 61.746094 L 74.902344 61.746094 Z M 74.902344 53.597656 " fill-opacity="1" fill-rule="nonzero"/></g></g><g clip-path="url(#255dfeea4c)"><g clip-path="url(#7d1d8e433a)"><path fill="#000000" d="M 76.691406 55.386719 L 81.257812 55.386719 L 81.257812 59.957031 L 76.691406 59.957031 Z M 76.691406 55.386719 " fill-opacity="1" fill-rule="nonzero"/></g></g><path stroke-linecap="round" transform="matrix(0.000000001309, 0.75, -0.75, 0.000000001309, 203.418625, 121.764777)" fill="none" stroke-linejoin="miter" d="M 1.001131 1.000875 L 77.704261 1.000875 " stroke="#000000" stroke-width="2" stroke-opacity="1" stroke-miterlimit="4"/><path stroke-linecap="round" transform="matrix(0, 0.75, -0.75, 0, 152.813402, 169.106019)" fill="none" stroke-linejoin="miter" d="M 0.999266 1.001202 L 34.046143 1.001202 " stroke="#000000" stroke-width="2" stroke-opacity="1" stroke-miterlimit="4"/><path stroke-linecap="round" transform="matrix(0, 0.75, -0.75, 0, 140.327134, 134.381007)" fill="none" stroke-linejoin="miter" d="M 1.002407 0.998678 L 28.747201 0.998678 " stroke="#000000" stroke-width="2" stroke-opacity="1" stroke-miterlimit="4"/><path stroke-linecap="round" transform="matrix(0.493007, 0.565194, -0.565194, 0.493007, 140.146166, 155.44288)" fill="none" stroke-linejoin="miter" d="M 0.999124 0.998812 L 24.421144 0.999419 " stroke="#000000" stroke-width="2" stroke-opacity="1" stroke-miterlimit="4"/><path stroke-linecap="round" transform="matrix(0, 0.75, -0.75, 0, 270.323336, 170.30804)" fill="none" stroke-linejoin="miter" d="M 1.000738 0.998824 L 29.979907 0.998824 " stroke="#000000" stroke-width="2" stroke-opacity="1" stroke-miterlimit="4"/><path stroke-linecap="round" transform="matrix(0.402749, 0.632687, -0.632687, 0.402749, 250.217215, 148.392002)" fill="none" stroke-linejoin="miter" d="M 0.998854 0.997685 L 48.080923 0.999797 " stroke="#000000" stroke-width="2" stroke-opacity="1" stroke-miterlimit="4"/><path stroke-linecap="round" transform="matrix(0.000000001309, 0.75, -0.75, 0.000000001309, 109.456536, 121.768058)" fill="none" stroke-linejoin="miter" d="M 1.001965 0.999339 L 57.335302 0.999339 " stroke="#000000" stroke-width="2" stroke-opacity="1" stroke-miterlimit="4"/><path stroke-linecap="round" transform="matrix(-0.639839, 0.391288, -0.391288, -0.639839, 148.961128, 98.027989)" fill="none" stroke-linejoin="miter" d="M 1.001618 0.998158 L 61.300703 0.999039 " stroke="#000000" stroke-width="2" stroke-opacity="1" stroke-miterlimit="4"/><path stroke-linecap="round" transform="matrix(0.00293184, 0.749994, -0.749994, 0.00293184, 148.298844, 71.394531)" fill="none" stroke-linejoin="miter" d="M 1.001303 1.001338 L 35.402612 1.0004 " stroke="#000000" stroke-width="2" stroke-opacity="1" stroke-miterlimit="4"/><path stroke-linecap="round" transform="matrix(0.000000001309, 0.75, -0.75, 0.000000001309, 109.458007, 102.244534)" fill="none" stroke-linejoin="miter" d="M 1.00208 1.001301 L 27.31979 1.001301 " stroke="#000000" stroke-width="2" stroke-opacity="1" stroke-miterlimit="4"/><path stroke-linecap="round" transform="matrix(0.622044, 0.419, -0.419, 0.622044, 79.426106, 82.776748)" fill="none" stroke-linejoin="miter" d="M 0.998698 0.998649 L 46.074383 0.998669 " stroke="#000000" stroke-width="2" stroke-opacity="1" stroke-miterlimit="4"/><path stroke-linecap="round" transform="matrix(0, 0.75, -0.75, 0, 80.176223, 58.423242)" fill="none" stroke-linejoin="miter" d="M 0.998178 1.000589 L 33.128388 1.000589 " stroke="#000000" stroke-width="2" stroke-opacity="1" stroke-miterlimit="4"/><g clip-path="url(#c287e5b399)"><g clip-path="url(#8817dc1464)"><path fill="#000000" d="M 174.507812 141.21875 L 186.195312 141.21875 L 186.195312 152.90625 L 174.507812 152.90625 Z M 174.507812 141.21875 " fill-opacity="1" fill-rule="nonzero"/></g></g><g clip-path="url(#678aac97a1)"><g clip-path="url(#97ad27c7e8)"><path fill="#ffffff" d="M 175.832031 142.542969 L 184.871094 142.542969 L 184.871094 151.582031 L 175.832031 151.582031 Z M 175.832031 142.542969 " fill-opacity="1" fill-rule="nonzero"/></g></g><g clip-path="url(#cf137fef0b)"><g clip-path="url(#3a99091594)"><path fill="#000000" d="M 177.816406 144.527344 L 182.886719 144.527344 L 182.886719 149.597656 L 177.816406 149.597656 Z M 177.816406 144.527344 " fill-opacity="1" fill-rule="nonzero"/></g></g><path stroke-linecap="round" transform="matrix(-0.663491, 0.349685, -0.349685, -0.663491, 180.698942, 169.765388)" fill="none" stroke-linejoin="miter" d="M 0.998914 0.997103 L 41.627779 0.997534 " stroke="#000000" stroke-width="2" stroke-opacity="1" stroke-miterlimit="4"/><path stroke-linecap="round" transform="matrix(0, 0.75, -0.75, 0, 181.097042, 148.13435)" fill="none" stroke-linejoin="miter" d="M 0.99795 0.999181 L 28.388577 0.999181 " stroke="#000000" stroke-width="2" stroke-opacity="1" stroke-miterlimit="4"/><g clip-path="url(#44bbbb5005)"><g clip-path="url(#c4eb5ead2a)"><path fill="#000000" d="M 102.335938 70.804688 L 112.863281 70.804688 L 112.863281 81.332031 L 102.335938 81.332031 Z M 102.335938 70.804688 " fill-opacity="1" fill-rule="nonzero"/></g></g><g clip-path="url(#05d2b5b370)"><g clip-path="url(#36cc880d3d)"><path fill="#ffffff" d="M 103.527344 71.996094 L 111.671875 71.996094 L 111.671875 80.140625 L 103.527344 80.140625 Z M 103.527344 71.996094 " fill-opacity="1" fill-rule="nonzero"/></g></g><g clip-path="url(#2134864b27)"><g clip-path="url(#83db824b5e)"><path fill="#000000" d="M 105.316406 73.785156 L 109.882812 73.785156 L 109.882812 78.351562 L 105.316406 78.351562 Z M 105.316406 73.785156 " fill-opacity="1" fill-rule="nonzero"/></g></g><path stroke-linecap="round" transform="matrix(0.0319162, 0.749321, -0.749321, 0.0319162, 108.345129, 77.645035)" fill="none" stroke-linejoin="miter" d="M 0.999414 0.998399 L 33.789554 0.997948 " stroke="#000000" stroke-width="2" stroke-opacity="1" stroke-miterlimit="4"/><path stroke-linecap="round" transform="matrix(-0.699244, 0.271217, -0.271217, -0.699244, 108.979531, 138.136191)" fill="none" stroke-linejoin="miter" d="M 1.001018 1.002015 L 40.877405 1.000198 " stroke="#000000" stroke-width="2" stroke-opacity="1" stroke-miterlimit="4"/><g clip-path="url(#f075611214)"><g clip-path="url(#9e78066ed1)"><path fill="#000000" d="M 74.164062 189.070312 L 84.691406 189.070312 L 84.691406 199.601562 L 74.164062 199.601562 Z M 74.164062 189.070312 " fill-opacity="1" fill-rule="nonzero"/></g></g><g clip-path="url(#5a4ec5cd6f)"><g clip-path="url(#ff45d78ad7)"><path fill="#ffffff" d="M 75.355469 190.265625 L 83.5 190.265625 L 83.5 198.410156 L 75.355469 198.410156 Z M 75.355469 190.265625 " fill-opacity="1" fill-rule="nonzero"/></g></g><g clip-path="url(#2274f07c50)"><g clip-path="url(#cf9a54b54c)"><path fill="#000000" d="M 77.144531 192.054688 L 81.710938 192.054688 L 81.710938 196.621094 L 77.144531 196.621094 Z M 77.144531 192.054688 " fill-opacity="1" fill-rule="nonzero"/></g></g><path stroke-linecap="round" transform="matrix(0.000000001309, 0.75, -0.75, 0.000000001309, 80.829609, 148.134907)" fill="none" stroke-linejoin="miter" d="M 1.002416 1.001978 L 59.544086 1.001979 " stroke="#000000" stroke-width="2" stroke-opacity="1" stroke-miterlimit="4"/><g clip-path="url(#d53d69b533)"><g clip-path="url(#bc47f745ff)"><path fill="#000000" d="M 175.664062 94.996094 L 186.195312 94.996094 L 186.195312 105.527344 L 175.664062 105.527344 Z M 175.664062 94.996094 " fill-opacity="1" fill-rule="nonzero"/></g></g><g clip-path="url(#4c2e21f0e6)"><g clip-path="url(#382f7aa0fe)"><path fill="#ffffff" d="M 176.859375 96.191406 L 185.003906 96.191406 L 185.003906 104.335938 L 176.859375 104.335938 Z M 176.859375 96.191406 " fill-opacity="1" fill-rule="nonzero"/></g></g><g clip-path="url(#5f913051c1)"><g clip-path="url(#1e6fac26ad)"><path fill="#000000" d="M 178.648438 97.980469 L 183.214844 97.980469 L 183.214844 102.546875 L 178.648438 102.546875 Z M 178.648438 97.980469 " fill-opacity="1" fill-rule="nonzero"/></g></g><path stroke-linecap="round" transform="matrix(0.532912, 0.527736, -0.527736, 0.532912, 181.984533, 100.265319)" fill="none" stroke-linejoin="miter" d="M 0.997007 0.999684 L 39.884652 1.001632 " stroke="#000000" stroke-width="2" stroke-opacity="1" stroke-miterlimit="4"/><path stroke-linecap="round" transform="matrix(0.000000001309, 0.75, -0.75, 0.000000001309, 250.330536, 98.701611)" fill="none" stroke-linejoin="miter" d="M 1.002019 0.998006 L 67.090565 0.998007 " stroke="#000000" stroke-width="2" stroke-opacity="1" stroke-miterlimit="4"/><g clip-path="url(#38373001fe)"><g clip-path="url(#d978701a8b)"><path fill="#000000" d="M 310.199219 252.898438 L 337.5 252.898438 L 337.5 280.203125 L 310.199219 280.203125 Z M 310.199219 252.898438 " fill-opacity="1" fill-rule="nonzero"/></g></g><g clip-path="url(#a98f5e1814)"><g clip-path="url(#f9d53dace1)"><path fill="#ffffff" d="M 313.289062 255.992188 L 334.40625 255.992188 L 334.40625 277.109375 L 313.289062 277.109375 Z M 313.289062 255.992188 " fill-opacity="1" fill-rule="nonzero"/></g></g><g clip-path="url(#44df464199)"><g clip-path="url(#aa1a62bf7f)"><path fill="#000000" d="M 317.929688 260.628906 L 329.769531 260.628906 L 329.769531 272.472656 L 317.929688 272.472656 Z M 317.929688 260.628906 " fill-opacity="1" fill-rule="nonzero"/></g></g><g clip-path="url(#b327ec2485)"><g clip-path="url(#1361f060d1)"><path fill="#000000" d="M 260.085938 141.21875 L 270.613281 141.21875 L 270.613281 151.746094 L 260.085938 151.746094 Z M 260.085938 141.21875 " fill-opacity="1" fill-rule="nonzero"/></g></g><g clip-path="url(#94461c7903)"><g clip-path="url(#b1070cf9b7)"><path fill="#ffffff" d="M 261.277344 142.410156 L 269.421875 142.410156 L 269.421875 150.554688 L 261.277344 150.554688 Z M 261.277344 142.410156 " fill-opacity="1" fill-rule="nonzero"/></g></g><g clip-path="url(#c93e8753ed)"><g clip-path="url(#6b458d3532)"><path fill="#000000" d="M 263.066406 144.359375 L 267.632812 144.359375 L 267.632812 148.929688 L 263.066406 148.929688 Z M 263.066406 144.359375 " fill-opacity="1" fill-rule="nonzero"/></g></g><path stroke-linecap="round" transform="matrix(0.119884, 0.740356, -0.740356, 0.119884, 266.061813, 144.365131)" fill="none" stroke-linejoin="miter" d="M 1.001581 1.000167 L 34.526488 0.999603 " stroke="#000000" stroke-width="2" stroke-opacity="1" stroke-miterlimit="4"/><path stroke-linecap="butt" transform="matrix(0.75, 0, 0, 0.75, 130.924918, 263.175422)" fill="none" stroke-linejoin="miter" d="M 0.0011506 4.500479 L 262.704293 4.500479 " stroke="#000000" stroke-width="9" stroke-opacity="1" stroke-miterlimit="4"/></svg>